<?xml version="1.0" standalone="no"?>
<!DOCTYPE svg PUBLIC "-//W3C//DTD SVG 20010904//EN"
 "http://www.w3.org/TR/2001/REC-SVG-20010904/DTD/svg10.dtd">
<svg version="1.0" xmlns="http://www.w3.org/2000/svg"
 width="3200.000000pt" height="3200.000000pt" viewBox="0 0 3200.000000 3200.000000"
 preserveAspectRatio="xMidYMid meet">

<defs>
  <linearGradient id="logoGradient">
    <stop offset="0" stop-color="#8b5cf6" />
    <stop offset="1" stop-color="#ec4899" />
  </linearGradient>
</defs>

<g transform="translate(0.000000,3200.000000) scale(0.100000,-0.100000)"
fill="url(#logoGradient)" stroke="none">
<path d="M15140 31989 c-93 -8 -270 -20 -300 -20 -8 -1 -53 -5 -100 -10 -47
-4 -121 -11 -165 -14 -44 -2 -98 -7 -120 -10 -52 -8 -126 -15 -145 -16 -8 0
-46 -5 -83 -10 -37 -5 -102 -12 -144 -15 -42 -3 -79 -7 -83 -9 -3 -2 -30 -6
-60 -10 -82 -8 -133 -15 -150 -20 -8 -3 -44 -7 -79 -10 -35 -3 -67 -7 -70 -10
-4 -2 -31 -6 -61 -10 -30 -3 -62 -8 -70 -10 -8 -2 -35 -7 -60 -10 -42 -5 -68
-10 -205 -35 -27 -6 -68 -12 -90 -16 -22 -3 -56 -9 -75 -14 -19 -5 -53 -11
-75 -14 -22 -3 -72 -12 -110 -20 -82 -17 -116 -24 -165 -32 -19 -3 -38 -8 -41
-10 -3 -2 -21 -6 -40 -9 -19 -3 -52 -11 -74 -16 -22 -5 -49 -11 -60 -13 -11
-1 -31 -6 -43 -10 -13 -5 -34 -9 -45 -11 -12 -1 -62 -12 -112 -25 -49 -12
-103 -24 -120 -27 -16 -3 -38 -9 -47 -14 -9 -5 -21 -8 -25 -7 -4 0 -20 -2 -34
-6 -14 -4 -32 -8 -40 -10 -8 -1 -34 -9 -59 -16 -25 -7 -48 -13 -52 -12 -4 1
-23 -5 -43 -14 -21 -8 -39 -13 -42 -10 -3 2 -19 -2 -37 -9 -18 -8 -44 -16 -57
-19 -13 -3 -49 -12 -79 -21 -30 -9 -66 -18 -79 -21 -13 -3 -39 -11 -57 -19
-18 -7 -34 -11 -37 -9 -3 3 -22 -2 -43 -11 -38 -16 -53 -21 -103 -31 -13 -3
-39 -11 -57 -19 -19 -8 -34 -12 -34 -9 0 3 -9 0 -21 -6 -11 -6 -29 -13 -40
-16 -10 -2 -27 -6 -36 -8 -10 -2 -92 -30 -183 -60 -195 -66 -178 -61 -215 -71
-16 -5 -60 -21 -97 -36 -38 -15 -68 -26 -68 -23 0 2 -13 -2 -30 -11 -16 -9
-30 -13 -30 -10 0 3 -10 0 -22 -7 -13 -6 -27 -13 -33 -15 -19 -4 -100 -33
-120 -43 -48 -22 -145 -58 -145 -53 0 2 -16 -5 -35 -17 -19 -12 -35 -18 -35
-15 0 4 -11 0 -25 -9 -14 -9 -25 -14 -25 -11 0 3 -15 -2 -32 -12 -18 -9 -37
-18 -43 -19 -14 -2 -236 -94 -260 -107 -11 -6 -24 -12 -30 -13 -16 -3 -116
-44 -139 -57 -12 -6 -23 -12 -26 -12 -3 0 -16 -7 -30 -15 -14 -7 -26 -13 -27
-12 -2 1 -29 -10 -60 -24 -32 -15 -71 -32 -88 -39 -16 -7 -75 -35 -130 -61
-55 -26 -102 -48 -105 -49 -26 -9 -90 -41 -112 -57 -16 -11 -28 -17 -28 -13 0
3 -10 0 -22 -7 -13 -7 -25 -13 -28 -13 -12 -3 -68 -31 -100 -51 -19 -11 -37
-21 -40 -22 -15 -1 -70 -30 -107 -55 -24 -15 -43 -26 -43 -23 0 2 -39 -16 -87
-41 -49 -25 -101 -53 -118 -61 -16 -8 -37 -21 -45 -28 -8 -7 -17 -12 -20 -11
-3 1 -21 -7 -40 -19 -19 -11 -39 -22 -45 -23 -5 -2 -21 -11 -35 -20 -14 -9
-36 -23 -50 -29 -14 -7 -47 -26 -75 -42 -27 -17 -61 -35 -75 -41 -14 -6 -33
-18 -44 -27 -10 -9 -21 -16 -25 -16 -3 1 -25 -12 -48 -28 -24 -16 -43 -26 -43
-23 0 4 -15 -4 -32 -17 -18 -13 -35 -23 -38 -23 -3 0 -18 -10 -35 -21 -27 -20
-74 -48 -130 -78 -11 -6 -34 -21 -52 -33 -17 -13 -34 -23 -38 -23 -4 0 -30
-16 -56 -35 -27 -19 -52 -35 -56 -35 -3 0 -21 -11 -40 -26 -18 -14 -33 -22
-33 -19 0 3 -25 -13 -55 -35 -30 -22 -57 -40 -61 -40 -3 0 -23 -13 -44 -30
-21 -16 -41 -30 -44 -30 -4 0 -31 -18 -61 -40 -30 -22 -56 -39 -58 -38 -1 2
-21 -12 -44 -29 -22 -18 -44 -33 -48 -33 -4 0 -24 -13 -45 -30 -21 -16 -41
-30 -45 -30 -4 0 -39 -25 -76 -55 -38 -31 -69 -53 -69 -50 0 4 -20 -10 -44
-29 -23 -20 -46 -36 -50 -36 -4 0 -38 -25 -76 -55 -38 -30 -72 -55 -76 -55 -4
0 -31 -21 -60 -46 -30 -25 -54 -43 -54 -39 0 4 -24 -14 -54 -39 -29 -25 -57
-46 -61 -46 -4 0 -49 -36 -101 -80 -52 -45 -94 -78 -94 -74 0 3 -29 -19 -64
-50 -35 -31 -67 -56 -71 -56 -4 0 -58 -45 -120 -100 -63 -55 -117 -100 -121
-100 -4 0 -48 -38 -99 -85 -51 -47 -96 -85 -100 -85 -5 0 -56 -45 -115 -100
-60 -55 -110 -100 -113 -100 -2 0 -42 -38 -87 -85 -46 -46 -86 -82 -90 -80 -9
6 -970 -962 -970 -976 0 -6 -50 -64 -110 -129 -61 -64 -110 -120 -110 -125 0
-4 -38 -49 -85 -100 -47 -51 -85 -96 -85 -99 0 -4 -48 -61 -106 -127 -58 -65
-102 -119 -99 -119 4 0 -18 -29 -49 -64 -31 -35 -56 -66 -56 -70 0 -4 -34 -46
-75 -95 -41 -48 -75 -91 -75 -95 0 -4 -20 -32 -45 -60 -25 -29 -45 -57 -45
-61 0 -4 -21 -32 -46 -61 -25 -30 -43 -54 -39 -54 3 0 -21 -33 -54 -74 -34
-41 -61 -78 -61 -81 0 -4 -13 -24 -30 -45 -16 -21 -30 -41 -30 -44 0 -4 -22
-35 -50 -70 -27 -35 -50 -67 -50 -71 0 -3 -16 -27 -36 -51 -20 -24 -33 -44
-30 -44 4 0 -12 -26 -36 -57 -48 -63 -102 -145 -103 -153 0 -3 -15 -25 -33
-48 -19 -23 -31 -42 -28 -42 4 0 -12 -25 -34 -55 -22 -30 -40 -57 -40 -61 0
-4 -11 -22 -25 -40 -14 -18 -25 -36 -25 -39 0 -4 -14 -27 -32 -53 -18 -26 -32
-49 -31 -52 0 -3 -13 -22 -29 -42 -16 -21 -27 -38 -23 -38 3 0 -6 -16 -21 -35
-14 -19 -23 -35 -20 -35 4 0 -4 -15 -17 -32 -14 -18 -34 -50 -46 -70 -53 -95
-65 -115 -82 -140 -11 -14 -19 -29 -19 -33 0 -4 -9 -20 -21 -36 -11 -16 -18
-29 -14 -29 3 0 -6 -16 -21 -35 -14 -19 -23 -35 -20 -35 4 0 -7 -20 -24 -45
-17 -25 -28 -45 -24 -45 4 0 0 -8 -8 -17 -8 -10 -22 -31 -30 -48 -30 -58 -70
-130 -80 -142 -6 -7 -7 -13 -4 -13 4 0 -5 -17 -19 -37 -14 -21 -25 -43 -25
-49 0 -6 -9 -23 -20 -37 -12 -15 -21 -30 -22 -34 -1 -14 -22 -57 -45 -95 -13
-21 -20 -38 -17 -38 4 0 2 -6 -4 -12 -11 -13 -99 -179 -100 -188 -1 -11 -28
-67 -48 -100 -11 -19 -22 -38 -23 -42 -1 -8 -58 -132 -111 -243 -16 -33 -28
-62 -28 -65 1 -3 -5 -16 -12 -30 -8 -14 -15 -27 -16 -30 0 -3 -11 -27 -23 -55
-35 -75 -58 -129 -59 -138 -1 -4 -8 -20 -15 -35 -8 -15 -19 -38 -25 -52 -6
-14 -22 -51 -36 -82 -14 -31 -26 -62 -26 -68 0 -6 -7 -22 -16 -35 -9 -14 -13
-25 -10 -25 4 0 1 -12 -7 -27 -8 -16 -19 -39 -25 -53 -61 -151 -95 -237 -96
-245 -1 -5 -7 -19 -13 -30 -8 -16 -22 -60 -27 -85 -1 -3 -5 -11 -9 -17 -5 -7
-10 -21 -12 -30 -2 -10 -21 -61 -41 -113 -20 -52 -37 -101 -39 -110 -2 -9 -11
-34 -20 -56 -15 -35 -61 -168 -71 -204 -2 -8 -13 -42 -25 -75 -11 -33 -23 -67
-25 -75 -4 -17 -25 -83 -55 -175 -11 -33 -22 -67 -24 -75 -24 -89 -34 -119
-44 -138 -6 -12 -10 -22 -7 -22 3 0 0 -15 -5 -32 -6 -18 -12 -37 -13 -43 -1
-5 -9 -30 -16 -55 -7 -25 -15 -49 -16 -55 -1 -5 -10 -37 -19 -70 -9 -33 -18
-67 -20 -75 -2 -8 -8 -30 -14 -48 -5 -18 -10 -36 -11 -40 0 -4 -6 -25 -12 -47
-6 -22 -11 -43 -10 -47 1 -4 -5 -23 -13 -42 -8 -20 -14 -39 -13 -43 1 -5 -5
-28 -12 -53 -7 -25 -13 -48 -12 -51 1 -4 -3 -22 -9 -40 -11 -37 -17 -58 -24
-90 -2 -11 -6 -28 -9 -37 -3 -9 -8 -35 -12 -56 -3 -22 -10 -50 -15 -63 -5 -13
-7 -23 -4 -23 2 0 -5 -29 -15 -64 -10 -36 -16 -66 -14 -69 3 -2 0 -16 -6 -31
-5 -15 -12 -41 -15 -59 -3 -18 -8 -45 -12 -62 -3 -16 -7 -39 -8 -50 -2 -11 -8
-38 -14 -60 -6 -22 -13 -58 -15 -79 -3 -21 -8 -46 -10 -55 -3 -9 -8 -36 -11
-61 -3 -24 -9 -60 -14 -80 -5 -19 -12 -54 -15 -78 -3 -24 -7 -46 -10 -50 -2
-4 -7 -36 -10 -71 -4 -36 -9 -68 -12 -72 -2 -5 -7 -32 -10 -61 -3 -29 -10 -73
-15 -98 -6 -25 -12 -67 -15 -95 -3 -27 -7 -56 -9 -63 -3 -7 -7 -41 -10 -75 -3
-34 -10 -85 -16 -113 -5 -27 -12 -79 -14 -115 -3 -35 -7 -76 -10 -91 -4 -14
-8 -46 -10 -70 -7 -79 -17 -173 -21 -192 -6 -31 -18 -197 -19 -248 0 -27 -3
-48 -6 -48 -3 0 -5 -16 -4 -35 0 -20 -2 -68 -7 -108 -19 -174 -23 -372 -23
-1167 1 -785 3 -928 20 -1115 6 -64 14 -167 16 -205 0 -8 4 -55 9 -105 5 -49
12 -124 15 -165 4 -41 8 -82 10 -90 3 -8 7 -48 10 -88 3 -40 7 -83 10 -95 6
-24 16 -113 16 -137 0 -8 5 -37 10 -65 5 -27 11 -77 14 -109 3 -33 7 -67 10
-75 2 -9 7 -38 10 -66 3 -27 8 -57 10 -66 3 -9 7 -36 10 -60 7 -67 15 -121 20
-129 2 -3 7 -33 10 -66 4 -32 9 -62 11 -65 2 -4 6 -28 9 -55 3 -27 10 -65 15
-84 9 -36 36 -176 55 -287 7 -47 16 -87 21 -106 3 -10 8 -34 10 -54 3 -20 7
-40 10 -44 6 -10 13 -39 19 -79 2 -14 9 -45 15 -70 6 -25 13 -56 16 -70 3 -14
12 -52 20 -85 8 -33 16 -69 18 -80 1 -11 6 -30 10 -42 4 -12 9 -32 11 -45 4
-19 14 -63 20 -88 1 -3 7 -25 15 -50 7 -25 14 -52 15 -60 1 -8 9 -40 18 -70 9
-30 18 -66 21 -80 3 -14 10 -41 16 -60 6 -19 14 -48 17 -65 3 -16 9 -38 15
-48 5 -10 12 -31 14 -45 3 -15 12 -47 20 -72 9 -25 18 -55 20 -67 2 -12 9 -35
15 -50 6 -16 13 -41 16 -58 3 -16 9 -38 15 -48 5 -10 11 -27 14 -38 2 -10 6
-28 8 -38 3 -11 9 -28 14 -38 6 -10 12 -31 15 -48 3 -16 15 -57 26 -90 12 -33
24 -68 26 -78 2 -9 7 -22 10 -27 3 -5 8 -18 10 -27 2 -10 15 -48 28 -85 14
-38 24 -68 21 -68 -2 0 6 -21 17 -47 20 -46 55 -142 64 -173 6 -24 61 -171 80
-215 9 -22 18 -44 19 -50 1 -5 8 -20 14 -33 7 -12 10 -22 7 -22 -2 0 6 -25 20
-55 13 -30 22 -55 19 -55 -2 0 3 -11 12 -25 9 -14 13 -25 9 -25 -3 0 3 -16 15
-35 12 -19 18 -35 15 -35 -4 0 0 -11 9 -25 9 -14 14 -25 10 -25 -3 0 4 -16 16
-35 12 -19 18 -35 15 -35 -4 0 0 -11 9 -25 9 -14 14 -25 11 -25 -4 0 2 -15 11
-32 39 -75 45 -88 39 -88 -3 0 0 -10 7 -23 6 -12 13 -27 14 -34 1 -7 12 -26
24 -43 12 -16 18 -30 15 -30 -4 0 0 -11 9 -25 9 -14 14 -25 11 -25 -3 0 0 -10
7 -22 7 -13 13 -25 13 -28 0 -3 11 -27 24 -55 29 -62 61 -132 96 -210 61 -134
69 -151 87 -177 11 -16 17 -28 13 -28 -3 0 2 -11 11 -25 9 -14 13 -25 9 -25
-3 0 3 -14 15 -30 12 -17 19 -30 16 -30 -4 0 5 -18 19 -40 14 -22 23 -40 19
-40 -3 0 4 -14 16 -30 12 -17 18 -30 14 -30 -3 0 -1 -6 5 -13 9 -12 91 -165
144 -272 11 -22 26 -47 33 -55 7 -8 13 -18 14 -22 3 -23 32 -78 40 -78 6 0 9
-3 8 -7 -3 -14 83 -174 110 -205 8 -10 12 -18 8 -18 -4 0 2 -12 13 -26 12 -15
21 -31 21 -36 0 -5 15 -30 32 -56 18 -26 33 -49 33 -52 0 -3 3 -9 7 -15 3 -5
15 -27 27 -48 12 -20 31 -54 42 -75 12 -20 31 -50 43 -67 11 -16 21 -32 21
-35 0 -3 10 -19 23 -37 12 -17 22 -34 22 -38 0 -4 16 -29 35 -55 19 -26 35
-51 35 -55 0 -5 11 -23 25 -41 14 -18 25 -36 25 -39 0 -4 16 -29 35 -55 19
-26 35 -51 35 -55 0 -4 14 -25 31 -46 17 -21 28 -39 24 -39 -4 0 7 -18 24 -39
17 -21 31 -42 31 -46 0 -3 20 -33 45 -65 25 -32 45 -62 45 -66 0 -4 11 -22 25
-40 14 -19 25 -36 25 -39 0 -3 25 -37 55 -75 31 -39 53 -70 49 -70 -3 0 14
-23 38 -52 23 -28 41 -53 38 -54 -3 -1 11 -22 30 -45 19 -24 35 -47 35 -50 0
-3 26 -38 57 -78 32 -39 58 -74 58 -77 0 -4 18 -28 40 -54 22 -26 40 -51 40
-54 0 -4 33 -46 73 -94 39 -48 72 -89 72 -93 0 -3 24 -33 53 -66 28 -33 52
-64 52 -68 0 -4 27 -38 60 -75 33 -37 60 -71 60 -75 0 -4 46 -59 102 -122 57
-63 108 -122 113 -132 6 -9 48 -58 95 -110 47 -52 85 -97 85 -101 0 -37 1353
-1390 1390 -1390 4 0 53 -43 110 -95 56 -52 105 -95 109 -95 4 0 61 -48 127
-108 66 -59 126 -109 132 -111 7 -2 42 -30 78 -62 37 -33 70 -59 74 -59 4 0
35 -24 68 -53 33 -28 63 -52 66 -52 4 0 45 -33 93 -72 48 -40 90 -73 94 -73 3
0 28 -18 54 -40 26 -22 50 -40 54 -40 3 0 38 -26 77 -58 40 -31 75 -57 78 -57
3 0 25 -15 48 -34 23 -18 43 -31 45 -30 2 2 28 -16 56 -39 29 -24 52 -41 52
-38 0 4 31 -18 70 -49 38 -30 71 -54 72 -53 2 2 19 -10 39 -25 20 -15 39 -27
43 -27 4 0 34 -20 66 -45 32 -25 62 -45 65 -45 4 0 25 -14 46 -31 21 -17 39
-28 39 -24 0 4 18 -7 39 -24 21 -17 42 -31 46 -31 4 0 29 -16 55 -35 26 -19
51 -35 55 -35 3 0 21 -11 39 -25 18 -14 36 -25 41 -25 4 0 29 -16 55 -35 26
-19 51 -35 55 -35 4 0 21 -10 38 -22 18 -13 34 -23 37 -23 3 0 19 -10 35 -21
28 -20 46 -31 143 -85 20 -12 45 -28 55 -37 9 -8 17 -12 17 -8 0 4 20 -7 44
-24 25 -16 49 -30 54 -30 5 0 21 -9 36 -21 14 -11 26 -17 26 -13 0 4 8 0 17
-8 29 -25 203 -120 203 -110 0 3 6 -1 13 -10 6 -8 28 -21 47 -28 19 -7 42 -19
50 -25 8 -6 33 -21 55 -32 107 -53 260 -135 272 -144 7 -6 13 -8 13 -5 0 4 14
-2 30 -14 17 -12 30 -19 30 -16 0 4 18 -5 40 -19 22 -14 40 -23 40 -19 0 3 14
-4 30 -16 17 -12 30 -18 30 -15 0 4 11 0 25 -9 14 -9 25 -14 25 -11 0 4 12 -2
28 -13 15 -10 47 -28 72 -39 25 -12 72 -33 105 -48 33 -15 88 -40 122 -56 35
-17 64 -29 65 -27 2 1 20 -8 41 -20 20 -13 37 -21 37 -17 0 3 13 -3 30 -15 16
-12 30 -18 30 -15 0 4 11 0 25 -9 14 -9 25 -14 25 -10 0 3 16 -4 35 -16 19
-12 35 -19 35 -16 0 4 11 -1 25 -10 14 -9 25 -13 25 -9 0 4 6 2 13 -4 12 -9
142 -67 157 -68 9 -2 65 -25 92 -40 15 -7 30 -14 33 -13 3 0 19 -7 35 -15 17
-9 30 -13 30 -9 0 3 11 -1 25 -10 14 -9 25 -14 25 -12 0 3 25 -6 55 -19 30
-14 55 -22 55 -20 0 3 10 0 23 -7 12 -6 27 -13 32 -14 6 -1 28 -10 50 -19 44
-19 191 -74 215 -80 31 -9 127 -44 173 -64 26 -11 47 -19 47 -17 0 3 30 -7 68
-21 37 -13 75 -26 85 -28 9 -2 22 -7 27 -10 5 -3 18 -8 27 -10 10 -2 45 -14
78 -26 33 -11 74 -23 90 -26 17 -3 38 -9 48 -15 10 -5 27 -11 38 -14 10 -2 28
-6 38 -8 11 -3 28 -9 38 -14 10 -6 32 -12 48 -15 17 -3 42 -10 58 -16 15 -6
38 -13 50 -15 12 -2 42 -11 67 -20 25 -8 57 -17 72 -20 14 -2 35 -9 45 -14 10
-6 32 -12 48 -15 17 -3 46 -11 65 -17 19 -6 46 -13 60 -16 14 -3 50 -12 80
-21 30 -9 64 -17 75 -19 11 -1 52 -12 91 -23 39 -11 86 -23 104 -26 18 -3 37
-8 41 -11 5 -3 21 -7 36 -9 16 -3 55 -11 88 -19 33 -8 71 -17 85 -20 14 -3 45
-10 70 -16 25 -6 56 -13 70 -15 40 -6 69 -13 79 -19 4 -3 24 -7 44 -10 20 -2
44 -7 54 -10 24 -7 73 -17 158 -30 38 -6 72 -14 93 -20 9 -3 37 -8 62 -11 25
-3 61 -10 80 -15 19 -5 57 -12 84 -15 27 -3 51 -7 55 -9 3 -2 33 -7 65 -11 33
-3 63 -8 66 -10 8 -5 62 -13 129 -20 24 -3 51 -7 60 -10 9 -2 39 -7 66 -10 28
-3 57 -8 66 -10 8 -3 42 -7 75 -10 32 -3 82 -9 109 -14 28 -5 57 -10 65 -10 8
0 33 -2 55 -5 81 -11 122 -16 190 -21 39 -4 77 -8 85 -11 8 -2 51 -6 95 -9 44
-3 96 -7 115 -10 41 -6 146 -16 210 -20 25 -1 86 -6 135 -10 50 -4 122 -10
160 -13 112 -8 1788 -8 1925 1 69 4 157 11 197 15 40 5 88 7 108 7 19 -1 35 1
35 4 0 3 21 6 48 6 51 1 217 13 248 19 19 4 113 14 192 21 24 2 56 6 70 10 15
3 56 7 91 10 36 2 88 9 115 14 28 6 80 13 115 16 35 3 67 7 70 9 3 2 35 7 70
10 35 3 66 8 70 10 7 5 85 17 111 18 8 0 31 4 50 9 19 4 58 11 85 14 28 3 61
8 75 11 14 3 36 8 50 10 58 9 86 14 110 20 14 3 38 7 54 9 15 2 35 7 45 9 9 3
36 8 61 11 24 3 62 10 85 16 22 6 49 12 60 14 11 1 34 5 50 8 17 4 44 9 62 12
18 3 44 10 59 15 15 6 29 9 31 6 3 -2 33 4 69 14 35 10 64 17 64 15 0 -3 10
-1 23 4 13 5 41 12 63 15 21 4 47 9 56 12 9 3 26 7 37 9 12 3 30 7 41 9 11 3
24 7 29 10 4 3 23 8 42 10 19 3 50 10 69 16 19 6 49 14 65 17 17 3 38 9 47 14
9 5 21 8 25 7 4 -1 26 4 48 10 22 6 43 12 47 12 4 1 22 6 40 11 18 6 40 12 48
14 8 2 42 11 75 20 33 9 65 18 70 19 67 18 106 29 138 41 20 8 41 14 45 13 4
-2 21 3 37 9 28 11 101 32 117 33 4 0 28 9 53 20 25 11 45 17 45 14 0 -2 9 0
21 6 11 7 34 13 49 15 16 2 43 11 59 20 17 8 31 14 31 11 0 -2 30 7 68 20 37
14 75 27 85 29 9 3 25 7 35 10 9 2 60 21 112 41 52 20 100 37 105 39 39 8 74
20 95 30 23 12 118 48 130 50 3 0 14 6 25 12 11 6 23 11 28 12 23 2 64 15 73
23 7 5 20 10 31 12 10 2 73 27 141 55 67 28 128 51 135 51 7 0 18 5 23 10 6 6
21 13 34 15 13 2 28 9 34 15 5 5 16 10 24 10 7 0 39 12 70 26 31 14 68 30 82
36 14 6 37 17 52 25 15 7 31 14 35 15 9 1 71 28 143 61 25 11 47 21 50 21 3 1
14 7 25 13 11 6 23 11 28 12 4 0 45 19 92 41 46 22 88 40 92 40 5 0 25 11 46
25 20 14 37 23 37 20 0 -3 11 2 25 11 14 9 25 13 25 10 0 -3 17 4 38 17 34 21
90 49 102 52 3 0 16 7 30 15 14 8 27 15 30 15 10 2 156 75 218 109 34 19 62
32 62 30 0 -3 14 4 30 16 17 12 30 19 30 15 0 -3 19 7 43 23 23 16 44 30 47
30 13 1 69 29 107 54 23 15 46 28 51 28 5 0 21 9 36 21 14 11 26 18 26 14 0
-3 20 8 45 25 25 17 45 28 45 24 0 -3 16 6 35 20 19 15 35 24 35 21 0 -4 13 3
29 14 16 12 32 21 36 21 3 0 25 13 48 29 23 16 44 28 47 27 3 0 19 9 37 22 17
12 34 22 38 22 3 0 27 15 53 32 26 18 49 33 52 33 3 0 20 10 38 23 17 13 32
20 32 17 0 -4 18 7 39 24 21 17 42 31 46 31 3 0 27 15 53 32 26 18 49 33 52
33 3 0 19 10 37 23 17 12 34 22 37 22 4 0 29 17 57 38 27 20 51 35 52 32 2 -3
23 11 47 30 24 19 47 35 50 35 8 1 90 55 153 103 31 24 57 40 57 36 0 -3 20
10 44 30 24 20 48 36 51 36 4 0 36 23 71 50 35 28 67 50 70 50 4 0 26 16 50
35 23 19 46 35 50 35 4 0 38 25 75 55 38 31 69 53 69 50 0 -4 24 14 54 39 29
25 57 46 61 46 4 0 32 20 61 45 28 25 56 45 60 45 4 0 47 34 95 75 49 41 91
75 95 75 4 0 35 25 69 55 35 30 66 55 70 55 4 0 58 45 120 100 63 55 117 100
121 100 3 0 45 35 93 79 47 43 91 80 98 82 6 2 61 50 121 107 61 56 116 102
122 102 16 0 1130 1114 1130 1130 0 6 51 66 113 132 61 66 112 123 112 127 0
4 38 49 85 100 47 52 85 96 85 100 0 4 46 59 103 123 56 63 102 119 102 123 0
4 25 36 56 71 31 35 53 64 50 64 -4 0 30 43 75 95 44 52 78 95 74 95 -4 0 16
27 45 60 29 33 49 60 45 60 -4 0 14 24 39 54 25 29 46 56 46 60 0 4 25 38 55
76 30 38 55 72 55 76 0 4 16 27 36 50 19 24 33 44 29 44 -3 0 19 31 50 69 30
37 55 72 55 76 0 4 14 24 30 45 17 21 30 41 30 45 0 4 13 24 29 44 16 20 29
39 30 44 0 4 19 32 41 62 22 30 40 57 40 61 0 3 14 23 30 44 17 21 30 41 30
44 0 4 18 31 40 61 22 30 38 55 34 55 -3 0 9 18 26 40 17 22 29 40 26 40 -4 0
10 24 31 53 21 29 44 63 51 76 17 30 46 80 73 128 12 21 31 52 43 68 11 17 21
32 21 35 0 3 10 19 21 35 12 17 23 35 24 40 2 6 14 27 26 47 13 21 24 40 24
43 0 4 12 22 26 41 15 19 23 34 20 34 -4 0 2 13 13 29 12 16 21 33 21 38 0 5
12 25 26 44 21 28 52 85 59 109 0 3 12 23 26 45 34 55 161 300 164 315 0 3 12
23 26 45 24 39 47 85 46 95 0 3 11 23 24 45 22 36 51 92 54 105 0 3 6 15 13
28 7 12 10 22 7 22 -4 0 2 12 13 27 16 23 49 87 57 113 1 5 61 133 105 225 25
51 73 158 74 165 1 3 7 14 13 25 6 11 12 25 14 30 1 6 10 28 20 50 30 69 48
115 47 118 -1 1 5 16 14 32 8 17 21 44 28 60 7 17 18 44 25 60 28 68 52 127
54 137 1 4 13 32 26 63 14 30 22 55 19 55 -3 0 4 16 16 35 12 19 19 35 17 35
-5 0 31 97 53 145 10 20 39 101 43 120 2 6 9 20 15 33 7 12 10 22 7 22 -3 0 1
14 10 30 9 17 13 30 11 30 -3 0 3 20 14 45 11 25 17 45 13 45 -3 0 0 6 6 14
10 12 19 35 36 96 3 8 27 80 54 160 43 129 94 286 96 300 0 3 6 21 13 41 7 20
15 46 17 58 11 46 14 57 30 95 9 21 14 40 11 43 -2 3 2 19 9 37 8 18 16 44 19
57 3 13 12 49 21 79 9 30 18 66 21 79 3 13 11 39 19 57 7 18 11 34 9 37 -3 3
2 21 10 42 9 20 15 39 14 43 -1 4 5 27 12 52 7 25 15 51 16 59 2 8 6 26 10 40
4 14 6 30 6 34 -1 4 2 16 7 25 5 9 11 31 14 47 3 17 15 71 28 120 12 50 23 97
24 105 1 8 5 29 8 45 4 17 9 39 12 50 2 11 9 38 14 60 6 22 13 55 16 74 3 19
7 37 9 40 2 3 7 22 10 41 6 38 8 47 32 165 9 44 18 89 19 101 2 11 8 45 14 75
6 30 13 70 16 89 3 19 10 59 15 88 24 128 30 160 35 202 3 25 8 52 10 60 2 8
7 40 10 70 4 30 8 57 10 61 3 3 7 35 10 70 3 35 8 72 11 81 3 9 7 39 9 65 5
55 12 107 20 143 3 14 7 54 10 90 2 36 9 97 14 135 5 39 10 77 10 85 1 19 9
93 16 145 3 22 8 76 10 120 3 44 10 118 14 165 5 47 9 92 10 100 0 22 9 150
17 275 5 61 8 454 8 875 1 664 -3 838 -19 1045 -2 22 -6 83 -9 135 -3 52 -8
111 -11 130 -3 19 -7 67 -9 107 -3 39 -7 95 -11 125 -4 29 -8 73 -10 98 -5 63
-14 143 -19 177 -3 15 -8 61 -11 102 -3 41 -8 78 -10 82 -3 3 -7 37 -10 74 -3
37 -10 88 -14 114 -5 25 -9 53 -9 61 -1 27 -13 104 -17 111 -3 3 -7 33 -10 65
-4 32 -8 66 -10 74 -3 8 -7 38 -10 65 -3 28 -10 66 -15 85 -5 19 -12 55 -15
80 -3 25 -7 52 -10 60 -2 8 -7 35 -10 59 -3 25 -12 66 -19 92 -8 26 -12 49
-10 52 3 3 1 22 -5 44 -6 21 -13 55 -15 75 -3 20 -10 56 -17 80 -6 23 -12 54
-14 68 -2 14 -11 57 -20 95 -9 39 -18 86 -21 105 -2 19 -8 46 -14 60 -5 14
-11 39 -14 55 -3 17 -9 45 -15 64 -6 18 -10 36 -9 40 1 3 -4 26 -12 51 -7 25
-14 54 -16 65 -3 25 -36 155 -64 255 -12 41 -23 89 -26 105 -3 17 -10 38 -16
48 -5 10 -7 21 -5 24 3 2 -1 19 -8 37 -8 18 -16 44 -19 57 -6 23 -25 91 -45
157 -5 17 -8 32 -5 32 2 0 -2 13 -11 30 -8 16 -15 33 -16 37 0 14 -21 86 -46
158 -13 39 -26 81 -29 95 -3 14 -12 45 -20 70 -9 25 -17 52 -19 60 -2 8 -13
42 -25 75 -12 33 -23 67 -25 75 -8 31 -62 176 -75 200 -7 14 -12 25 -10 25 5
0 -9 41 -47 145 -20 52 -36 100 -37 105 -1 6 -8 20 -14 33 -7 12 -10 22 -7 22
3 0 -2 15 -12 33 -9 17 -18 34 -18 37 -9 41 -28 90 -35 95 -6 3 -10 13 -10 21
0 9 -28 82 -61 162 -34 81 -62 152 -63 157 -1 6 -4 15 -8 20 -3 6 -29 66 -58
135 -28 69 -65 154 -82 190 -16 36 -38 83 -48 105 -10 22 -39 85 -65 140 -27
55 -46 100 -44 100 2 0 -6 15 -19 33 -13 17 -21 32 -18 32 3 0 -16 42 -42 93
-25 50 -47 94 -47 97 -1 12 -110 228 -127 253 -11 15 -16 27 -13 27 3 0 -3 14
-15 30 -12 17 -18 30 -14 30 3 0 2 6 -4 13 -5 6 -29 48 -52 92 -23 44 -51 92
-62 107 -10 16 -16 28 -13 28 3 0 -2 12 -12 28 -10 15 -28 45 -38 67 -11 22
-32 59 -47 82 -16 23 -28 45 -28 48 0 4 -9 19 -19 33 -10 15 -18 29 -18 32 1
3 -13 26 -31 52 -18 26 -32 51 -32 56 0 5 -9 21 -21 36 -11 14 -17 26 -14 26
4 0 -4 15 -19 34 -14 19 -26 38 -26 41 0 4 -13 26 -30 50 -16 24 -30 47 -30
51 0 4 -11 22 -25 40 -14 18 -25 36 -25 39 0 4 -15 27 -32 53 -18 26 -33 49
-33 52 0 3 -10 19 -23 37 -12 17 -22 34 -22 39 0 4 -18 31 -40 60 -22 29 -40
56 -40 60 0 4 -11 22 -25 40 -14 18 -25 36 -25 39 0 4 -13 24 -30 45 -16 21
-30 41 -30 46 0 4 -18 31 -40 60 -22 29 -40 56 -40 60 0 3 -13 23 -30 44 -16
21 -30 41 -30 45 0 4 -22 36 -50 71 -27 35 -50 67 -50 70 0 4 -16 26 -35 50
-19 23 -35 46 -35 50 0 4 -16 26 -35 50 -19 23 -35 46 -35 50 0 4 -25 37 -55
75 -30 37 -55 71 -55 75 0 3 -19 29 -42 57 -24 28 -43 53 -43 56 0 4 -33 45
-72 93 -40 48 -73 90 -73 93 0 4 -25 36 -56 71 -31 35 -53 64 -49 64 4 0 -36
49 -89 109 -53 60 -96 112 -96 116 0 4 -36 47 -81 96 -45 49 -78 89 -74 89 4
0 -33 44 -82 98 -50 53 -92 102 -94 109 -14 40 -1242 1283 -1256 1270 -2 -3
-31 24 -65 59 -34 35 -63 62 -66 59 -2 -2 -51 39 -108 91 -56 53 -106 96 -111
96 -4 0 -47 36 -94 79 -48 44 -90 79 -94 79 -4 0 -56 43 -116 96 -60 53 -109
93 -109 89 0 -4 -29 18 -64 49 -35 31 -67 56 -71 56 -3 0 -45 33 -93 73 -48
39 -89 72 -93 72 -3 0 -28 19 -56 43 -28 23 -54 42 -57 42 -4 0 -38 25 -75 55
-38 30 -71 55 -75 55 -4 0 -27 16 -50 35 -24 19 -46 35 -50 35 -4 0 -27 16
-50 35 -24 19 -46 35 -50 35 -3 0 -35 23 -70 50 -35 28 -67 50 -71 50 -4 0
-24 14 -45 30 -21 17 -41 30 -44 30 -4 0 -31 18 -60 40 -29 22 -56 40 -60 40
-5 0 -25 14 -46 30 -21 17 -41 30 -45 30 -4 0 -25 14 -46 31 -21 17 -39 28
-39 25 0 -4 -24 11 -53 34 -30 22 -57 40 -61 40 -4 0 -23 12 -42 26 -19 15
-34 23 -34 19 0 -4 -17 7 -37 23 -21 16 -55 39 -75 51 -21 11 -55 31 -75 42
-21 12 -50 30 -65 40 -14 11 -29 19 -33 19 -3 0 -22 12 -41 26 -19 15 -34 23
-34 20 0 -4 -15 4 -33 18 -19 15 -38 26 -44 26 -5 0 -29 14 -51 30 -23 17 -42
28 -42 24 0 -3 -12 4 -26 15 -15 12 -31 21 -36 21 -5 0 -28 12 -51 28 -23 15
-60 36 -82 47 -22 10 -52 28 -67 38 -16 10 -28 16 -28 12 0 -3 -19 7 -42 22
-37 25 -90 53 -108 58 -3 1 -23 12 -45 26 -22 13 -40 22 -40 19 0 -3 -15 5
-32 18 -18 13 -33 20 -33 17 0 -3 -12 2 -27 13 -25 17 -380 195 -393 197 -3 1
-50 22 -105 49 -119 57 -184 87 -245 114 -25 11 -74 33 -110 50 -36 16 -121
53 -190 82 -69 29 -129 55 -135 58 -5 4 -14 7 -20 8 -5 1 -76 29 -157 63 -80
33 -151 61 -156 61 -6 0 -23 6 -39 14 -27 14 -143 60 -153 61 -3 0 -15 6 -27
13 -13 7 -23 11 -23 8 0 -5 -44 11 -95 34 -26 11 -145 51 -166 55 -9 2 -25 8
-35 14 -18 10 -150 57 -184 66 -8 2 -42 13 -75 25 -33 12 -67 23 -75 25 -8 2
-37 11 -65 21 -27 9 -59 18 -70 20 -11 2 -51 14 -90 27 -72 25 -158 50 -163
48 -1 -1 -16 6 -32 14 -17 9 -30 13 -30 11 0 -3 -15 0 -32 5 -66 20 -134 39
-157 45 -13 3 -39 11 -57 19 -18 7 -35 11 -37 8 -3 -2 -14 0 -24 5 -10 6 -31
13 -48 16 -16 3 -64 14 -105 26 -100 28 -230 61 -255 64 -11 2 -40 9 -65 16
-25 8 -48 13 -51 12 -4 -1 -22 3 -40 9 -19 6 -47 12 -64 15 -16 3 -41 9 -55
14 -14 6 -41 12 -60 14 -19 3 -66 12 -105 21 -38 9 -81 18 -95 20 -14 2 -45 8
-68 14 -24 7 -60 14 -80 17 -20 2 -55 9 -77 15 -22 6 -56 13 -75 15 -19 3 -42
7 -50 9 -8 3 -35 7 -60 10 -25 3 -52 8 -60 10 -8 3 -35 7 -60 10 -25 3 -61 10
-80 15 -19 5 -57 12 -85 15 -27 3 -57 7 -65 10 -8 2 -42 6 -74 10 -32 3 -62 7
-65 10 -7 3 -51 10 -136 20 -22 3 -51 7 -65 10 -14 3 -52 7 -84 10 -33 3 -67
7 -75 10 -9 2 -43 7 -76 10 -33 2 -91 9 -130 14 -38 5 -77 10 -85 10 -34 0
-143 12 -150 16 -4 2 -58 7 -121 10 -63 3 -121 8 -129 10 -8 3 -59 7 -112 10
-53 3 -113 7 -133 10 -156 20 -1703 31 -1915 14z m1190 -2323 c332 -6 494 -12
569 -21 29 -4 93 -8 141 -10 48 -2 123 -8 166 -13 44 -6 86 -10 94 -10 17 -1
96 -8 180 -17 30 -3 75 -7 100 -10 25 -2 61 -7 80 -11 19 -3 57 -8 84 -10 27
-1 61 -5 75 -8 34 -7 74 -13 141 -21 30 -4 57 -8 60 -10 3 -2 35 -6 70 -10 36
-3 79 -10 95 -15 17 -5 39 -9 50 -9 11 1 29 -1 40 -4 11 -3 65 -12 120 -22 55
-9 103 -19 106 -21 4 -2 24 -6 44 -9 21 -2 45 -7 54 -9 9 -3 32 -7 51 -10 19
-3 69 -12 110 -21 41 -9 86 -18 100 -20 14 -3 43 -9 65 -15 22 -6 55 -13 74
-15 18 -3 37 -8 42 -11 5 -2 21 -7 36 -9 16 -2 92 -20 170 -40 79 -20 151 -38
160 -40 59 -15 216 -56 263 -70 30 -9 60 -17 65 -19 6 -1 30 -9 55 -16 25 -7
50 -15 55 -16 6 -2 35 -10 65 -19 30 -9 62 -17 71 -19 8 -2 32 -11 53 -20 20
-8 40 -15 44 -14 4 1 39 -9 77 -22 39 -13 71 -22 73 -21 1 1 16 -6 32 -14 17
-9 30 -13 30 -11 0 3 20 -3 45 -14 25 -11 45 -17 45 -14 0 2 13 -2 30 -11 16
-8 31 -15 32 -14 5 3 82 -23 93 -31 8 -6 82 -31 105 -34 7 -2 103 -39 225 -88
55 -22 108 -42 119 -44 10 -2 24 -8 32 -15 8 -6 14 -9 14 -6 0 3 25 -5 55 -18
30 -14 56 -25 58 -24 1 0 24 -10 51 -22 27 -11 54 -22 60 -23 6 -1 21 -8 34
-14 12 -7 22 -10 22 -7 0 3 18 -6 40 -20 22 -14 40 -22 40 -19 0 3 11 -1 25
-10 14 -9 25 -14 25 -11 0 4 12 -1 28 -9 15 -8 50 -24 77 -36 89 -39 159 -71
215 -98 30 -15 57 -27 60 -28 3 0 43 -19 90 -41 47 -23 90 -42 95 -43 6 -1 22
-11 38 -22 15 -11 27 -17 27 -14 0 4 18 -5 40 -19 22 -14 40 -23 40 -19 0 3
14 -4 30 -16 17 -12 30 -19 30 -16 0 4 17 -4 38 -17 20 -13 75 -43 122 -66 78
-39 110 -56 165 -87 11 -6 22 -11 25 -10 3 0 26 -14 53 -32 26 -18 47 -30 47
-27 0 4 12 -3 26 -14 15 -12 31 -21 36 -21 6 0 22 -8 36 -19 25 -17 41 -27
140 -82 20 -12 43 -26 50 -31 6 -6 12 -7 12 -4 0 4 15 -4 33 -17 28 -22 63
-44 132 -81 11 -6 41 -26 67 -44 26 -17 50 -32 54 -32 4 0 22 -11 40 -25 18
-14 36 -25 40 -25 4 0 22 -11 40 -25 18 -14 36 -25 40 -25 4 0 31 -18 60 -40
29 -22 56 -40 60 -40 3 0 24 -14 45 -31 21 -17 39 -28 39 -24 0 4 29 -16 65
-44 35 -28 67 -51 71 -51 3 0 23 -13 44 -30 21 -16 41 -30 45 -30 4 0 35 -22
70 -50 35 -27 66 -50 70 -50 4 0 29 -18 55 -40 26 -22 51 -40 55 -40 5 0 29
-17 54 -37 25 -21 48 -38 51 -38 3 0 42 -30 87 -67 45 -38 84 -68 88 -68 4 0
36 -25 71 -56 35 -31 64 -53 64 -49 0 4 49 -36 109 -89 60 -53 112 -96 117
-96 4 0 47 -36 96 -81 48 -44 88 -78 88 -74 0 4 51 -40 114 -99 63 -58 119
-106 126 -106 16 0 1025 -1009 1017 -1017 -4 -3 42 -57 101 -120 59 -63 107
-118 107 -122 0 -4 35 -46 78 -93 42 -47 77 -89 77 -93 0 -4 43 -56 96 -116
53 -60 93 -109 89 -109 -4 0 18 -29 50 -65 31 -36 54 -65 50 -65 -3 0 28 -40
70 -90 42 -49 73 -90 70 -90 -4 0 12 -22 34 -49 23 -27 41 -52 41 -56 0 -3 27
-40 61 -81 33 -41 57 -74 53 -74 -3 0 10 -20 30 -44 20 -24 36 -47 36 -51 0
-4 14 -24 30 -45 17 -21 30 -41 30 -44 0 -4 23 -36 51 -71 28 -36 48 -65 44
-65 -4 0 7 -18 24 -39 17 -21 31 -42 31 -47 0 -4 18 -31 40 -60 22 -29 40 -56
40 -60 0 -4 11 -22 25 -40 14 -18 25 -36 25 -40 0 -4 11 -22 25 -40 14 -18 25
-36 25 -39 0 -4 13 -26 30 -50 16 -24 30 -47 30 -51 0 -4 11 -22 26 -41 14
-18 22 -33 18 -33 -3 0 5 -15 19 -33 14 -19 35 -50 46 -70 29 -51 57 -100 83
-144 12 -21 31 -56 43 -78 63 -114 79 -141 93 -157 8 -10 12 -18 7 -18 -4 0
-3 -6 3 -13 6 -7 28 -46 50 -87 21 -41 51 -96 65 -122 14 -27 23 -48 21 -48
-2 0 7 -18 21 -40 14 -22 25 -42 25 -46 0 -3 9 -19 21 -35 11 -16 18 -29 15
-29 -4 0 5 -18 19 -40 14 -22 23 -40 20 -40 -3 0 2 -11 11 -25 9 -14 13 -25 9
-25 -3 0 2 -12 12 -27 19 -29 39 -69 96 -193 73 -158 100 -217 118 -264 11
-27 25 -58 32 -70 6 -12 12 -23 12 -26 0 -3 6 -15 13 -27 7 -13 10 -23 7 -23
-4 0 3 -16 15 -35 12 -19 19 -35 16 -35 -4 0 0 -10 8 -22 8 -13 15 -26 16 -30
0 -4 10 -29 21 -55 12 -27 22 -52 23 -58 1 -5 8 -20 14 -32 7 -13 10 -23 7
-23 -4 0 3 -16 15 -35 12 -19 19 -35 15 -35 -3 0 0 -10 7 -22 7 -13 12 -25 13
-28 0 -9 57 -154 70 -180 10 -20 19 -49 30 -90 0 -3 9 -20 18 -37 10 -18 17
-36 17 -40 1 -19 22 -86 45 -137 14 -31 22 -56 20 -56 -3 0 1 -13 10 -30 9
-16 13 -30 11 -30 -3 0 3 -20 14 -45 11 -25 17 -45 14 -45 -2 0 2 -13 11 -30
8 -16 15 -33 15 -37 0 -11 39 -138 57 -188 8 -22 17 -47 19 -55 2 -8 10 -40
19 -70 9 -30 17 -59 19 -65 1 -5 9 -30 16 -55 7 -25 15 -49 16 -55 47 -168 86
-316 90 -335 3 -14 9 -38 14 -55 5 -16 12 -41 14 -55 3 -14 15 -61 26 -105 12
-44 23 -92 25 -108 2 -15 7 -31 10 -36 2 -5 7 -28 10 -51 3 -24 8 -47 11 -51
5 -9 13 -40 18 -74 2 -11 6 -33 9 -50 4 -16 9 -45 12 -64 3 -19 8 -37 10 -40
2 -4 6 -27 10 -51 3 -25 8 -52 11 -61 2 -9 7 -33 9 -54 3 -20 7 -40 9 -44 2
-3 12 -51 21 -106 10 -55 19 -109 22 -120 2 -11 5 -27 5 -35 0 -8 4 -37 9 -65
5 -27 12 -70 15 -95 2 -25 7 -52 9 -60 2 -8 6 -33 9 -55 14 -110 17 -131 22
-145 2 -9 6 -41 8 -72 3 -30 7 -71 11 -89 3 -19 8 -54 10 -79 3 -25 7 -70 10
-100 10 -94 16 -164 16 -180 0 -8 5 -49 10 -90 5 -41 11 -122 14 -180 2 -58 7
-127 10 -155 6 -47 9 -117 19 -365 5 -134 5 -890 0 -1035 -8 -199 -12 -287
-19 -364 -3 -42 -8 -116 -10 -166 -2 -49 -7 -106 -10 -125 -3 -19 -8 -62 -10
-95 -8 -110 -15 -179 -20 -195 -2 -8 -7 -53 -10 -99 -3 -47 -8 -87 -10 -91 -2
-3 -6 -35 -9 -71 -4 -35 -8 -75 -11 -89 -3 -14 -7 -43 -10 -65 -10 -77 -15
-110 -20 -135 -3 -14 -7 -49 -10 -79 -3 -30 -9 -70 -15 -90 -5 -20 -12 -61
-15 -91 -4 -30 -8 -57 -10 -60 -2 -3 -6 -28 -10 -56 -3 -27 -8 -56 -11 -65 -2
-10 -7 -30 -9 -45 -6 -41 -15 -86 -21 -107 -3 -10 -7 -31 -9 -48 -3 -17 -7
-39 -10 -49 -3 -10 -8 -35 -11 -56 -2 -22 -7 -47 -10 -56 -7 -24 -14 -58 -20
-97 -2 -18 -9 -41 -14 -51 -5 -9 -7 -19 -5 -22 3 -2 0 -20 -6 -39 -14 -45 -19
-70 -23 -95 -2 -11 -5 -25 -8 -30 -4 -5 -9 -25 -12 -44 -3 -19 -10 -50 -15
-68 -5 -18 -10 -36 -11 -40 0 -4 -6 -25 -12 -47 -6 -22 -11 -43 -10 -47 1 -4
-3 -19 -8 -33 -5 -14 -12 -36 -14 -48 -3 -12 -14 -56 -26 -97 -11 -41 -22 -85
-25 -97 -3 -12 -10 -35 -16 -50 -6 -16 -12 -35 -14 -43 -2 -8 -11 -42 -21 -75
-10 -33 -17 -63 -16 -67 1 -4 -7 -28 -18 -53 -11 -25 -17 -45 -14 -45 2 0 -2
-14 -11 -30 -9 -16 -13 -30 -11 -30 3 0 0 -15 -5 -32 -6 -18 -12 -40 -14 -48
-2 -8 -18 -55 -36 -105 -17 -49 -32 -97 -35 -105 -2 -8 -14 -45 -28 -82 -13
-38 -22 -68 -19 -68 3 0 -2 -12 -12 -26 -9 -14 -18 -33 -20 -42 -2 -9 -17 -55
-35 -102 -17 -47 -33 -93 -35 -102 -2 -9 -9 -27 -16 -40 -8 -13 -14 -25 -14
-28 -9 -37 -19 -67 -27 -76 -5 -7 -10 -20 -12 -30 -6 -29 -225 -556 -238 -571
-6 -7 -7 -13 -4 -13 4 0 0 -12 -8 -27 -20 -37 -75 -153 -74 -156 0 -1 -19 -42
-43 -92 -23 -49 -43 -92 -44 -95 -2 -9 -185 -374 -214 -427 -16 -29 -27 -53
-25 -53 3 0 -9 -20 -26 -45 -17 -25 -28 -45 -25 -45 4 0 -3 -14 -15 -30 -12
-17 -18 -30 -15 -30 4 0 -3 -12 -14 -26 -12 -15 -21 -31 -21 -36 0 -5 -14 -29
-30 -54 -17 -24 -28 -44 -25 -44 4 0 -3 -13 -14 -29 -12 -16 -21 -32 -21 -36
0 -3 -13 -26 -30 -50 -16 -24 -30 -47 -30 -50 0 -4 -9 -20 -21 -36 -11 -16
-17 -29 -13 -29 3 0 -5 -15 -19 -33 -24 -32 -34 -49 -88 -145 -12 -20 -27 -44
-35 -53 -8 -8 -14 -19 -14 -23 0 -4 -13 -27 -30 -51 -16 -24 -30 -46 -30 -50
0 -3 -11 -21 -25 -39 -14 -18 -25 -36 -25 -40 0 -4 -18 -31 -40 -60 -22 -29
-40 -56 -40 -60 0 -5 -14 -26 -31 -47 -17 -21 -28 -39 -24 -39 3 0 -10 -20
-31 -45 -20 -25 -33 -45 -29 -45 4 0 -17 -29 -45 -65 -28 -36 -49 -65 -45 -65
3 0 -10 -20 -29 -44 -20 -23 -36 -46 -36 -51 0 -4 -24 -37 -52 -73 -29 -36
-53 -69 -53 -72 0 -3 -17 -26 -37 -51 -21 -25 -38 -50 -38 -54 0 -4 -32 -45
-70 -91 -39 -45 -70 -86 -70 -90 0 -4 -20 -31 -45 -60 -25 -28 -45 -55 -45
-59 0 -4 -25 -35 -55 -70 -30 -34 -55 -65 -55 -69 0 -4 -45 -58 -100 -121 -55
-63 -100 -117 -100 -121 0 -3 -41 -51 -91 -105 -49 -54 -90 -101 -89 -104 6
-30 -1228 -1265 -1265 -1265 -4 0 -49 -38 -100 -85 -51 -47 -96 -85 -99 -85
-4 0 -61 -48 -127 -106 -65 -58 -119 -102 -119 -99 0 4 -29 -18 -64 -49 -35
-31 -67 -56 -71 -56 -4 0 -33 -22 -65 -50 -32 -27 -61 -50 -65 -50 -4 0 -43
-30 -88 -67 -45 -38 -81 -66 -82 -63 0 3 -21 -12 -46 -32 -25 -21 -49 -38 -53
-38 -4 0 -38 -25 -75 -55 -38 -30 -72 -55 -76 -55 -4 0 -27 -16 -51 -35 -23
-19 -45 -35 -49 -35 -4 0 -33 -20 -65 -45 -32 -25 -62 -45 -65 -45 -4 0 -24
-13 -45 -30 -21 -16 -41 -30 -45 -30 -3 0 -21 -11 -39 -25 -18 -14 -37 -25
-41 -25 -5 0 -32 -18 -62 -40 -29 -23 -53 -38 -53 -34 0 3 -19 -9 -42 -28 -23
-18 -45 -32 -48 -32 -3 1 -25 -12 -49 -30 -24 -17 -45 -29 -46 -26 -2 3 -11
-2 -21 -11 -11 -10 -36 -26 -56 -38 -21 -12 -55 -30 -75 -42 -21 -12 -53 -32
-70 -46 -18 -13 -33 -21 -33 -17 0 3 -16 -6 -35 -20 -19 -15 -35 -24 -35 -21
0 3 -21 -9 -47 -27 -27 -18 -50 -33 -53 -33 -3 0 -9 -3 -15 -7 -5 -3 -30 -17
-55 -30 -74 -40 -124 -70 -137 -80 -7 -6 -13 -7 -13 -3 0 4 -6 3 -12 -3 -7 -5
-34 -22 -61 -36 -26 -14 -67 -37 -92 -50 -25 -13 -45 -22 -45 -20 0 3 -17 -7
-37 -21 -21 -14 -43 -25 -49 -25 -6 0 -23 -9 -37 -20 -15 -12 -28 -20 -29 -20
-7 3 -86 -34 -110 -52 -16 -11 -28 -16 -28 -13 0 4 -11 0 -25 -9 -14 -9 -25
-14 -25 -11 0 4 -13 -3 -28 -14 -16 -11 -51 -29 -78 -40 -28 -10 -77 -34 -110
-51 -32 -18 -60 -32 -62 -31 -1 1 -33 -12 -70 -29 -37 -17 -78 -36 -92 -42
-14 -6 -37 -17 -52 -25 -15 -7 -31 -14 -35 -15 -9 -1 -55 -20 -118 -47 -22
-10 -44 -18 -48 -19 -4 0 -19 -8 -33 -16 -13 -9 -24 -14 -24 -10 0 3 -16 -4
-35 -16 -19 -12 -35 -19 -35 -15 0 3 -10 0 -22 -7 -13 -6 -27 -13 -33 -14 -10
-2 -142 -53 -200 -79 -57 -24 -180 -70 -182 -68 -2 1 -24 -7 -50 -18 -27 -12
-55 -22 -63 -24 -15 -3 -88 -30 -125 -45 -18 -8 -217 -77 -240 -83 -5 -2 -37
-12 -70 -22 -33 -11 -64 -20 -70 -20 -5 -1 -41 -12 -80 -25 -38 -13 -72 -25
-75 -25 -3 -1 -25 -7 -50 -15 -25 -7 -49 -15 -55 -16 -5 -2 -35 -10 -65 -19
-30 -9 -66 -18 -79 -21 -13 -3 -39 -11 -57 -19 -18 -7 -34 -11 -37 -9 -3 3
-22 -2 -42 -11 -21 -8 -40 -13 -42 -11 -3 2 -20 -2 -39 -10 -18 -8 -50 -17
-71 -20 -21 -3 -46 -10 -56 -16 -10 -5 -21 -7 -24 -4 -3 3 -13 1 -22 -3 -9 -5
-33 -12 -55 -15 -21 -4 -42 -9 -47 -12 -5 -2 -21 -7 -36 -9 -16 -3 -104 -23
-198 -45 -93 -23 -183 -43 -200 -45 -16 -3 -41 -7 -55 -10 -14 -3 -41 -8 -60
-11 -19 -3 -38 -8 -41 -10 -4 -2 -26 -6 -49 -9 -24 -3 -46 -8 -50 -10 -4 -3
-29 -7 -56 -10 -27 -3 -56 -8 -65 -11 -10 -2 -32 -7 -50 -10 -19 -3 -44 -7
-56 -9 -12 -2 -34 -6 -50 -9 -15 -4 -46 -9 -68 -11 -22 -3 -53 -8 -68 -11 -15
-3 -44 -7 -65 -9 -43 -4 -110 -14 -132 -20 -8 -2 -40 -7 -70 -10 -30 -3 -66
-8 -80 -10 -14 -3 -47 -7 -75 -10 -27 -3 -66 -7 -85 -10 -19 -3 -60 -7 -90
-10 -82 -8 -129 -13 -195 -21 -33 -3 -78 -8 -100 -9 -22 -2 -76 -6 -120 -9
-44 -3 -105 -8 -135 -11 -30 -3 -102 -7 -160 -10 -58 -2 -152 -7 -210 -10
-289 -19 -932 -19 -1225 0 -60 4 -144 9 -185 10 -72 4 -164 10 -300 21 -36 3
-88 7 -117 9 -28 1 -73 6 -100 9 -26 4 -70 9 -98 11 -97 8 -160 15 -182 19
-12 3 -54 8 -95 11 -40 4 -76 9 -79 11 -3 2 -35 6 -70 9 -35 3 -75 8 -89 11
-14 3 -43 8 -65 10 -22 3 -62 9 -90 14 -27 5 -72 12 -100 15 -27 3 -66 10 -85
14 -19 5 -42 9 -50 9 -8 0 -26 3 -40 7 -14 4 -41 8 -60 10 -38 4 -72 11 -98
19 -9 3 -34 8 -56 10 -21 3 -46 8 -56 11 -10 3 -31 7 -47 9 -15 2 -48 9 -71
15 -24 7 -58 14 -77 16 -19 3 -54 10 -77 15 -24 6 -54 13 -68 16 -14 2 -33 7
-42 10 -10 3 -30 7 -45 10 -16 3 -36 7 -45 10 -9 3 -26 7 -37 9 -12 3 -30 7
-41 10 -11 3 -30 7 -42 10 -13 3 -32 7 -43 10 -11 2 -54 14 -95 25 -41 11 -84
23 -95 25 -11 2 -35 8 -53 13 -18 6 -36 11 -40 12 -4 0 -25 6 -47 12 -56 16
-52 15 -135 37 -41 11 -120 34 -175 51 -55 17 -108 33 -117 35 -9 2 -25 8 -35
13 -10 6 -31 12 -48 15 -16 3 -70 19 -120 36 -49 18 -97 33 -105 36 -8 2 -42
13 -75 25 -33 12 -67 23 -76 25 -8 2 -33 11 -55 20 -21 9 -46 18 -54 20 -25 5
-103 36 -132 51 -16 8 -28 13 -28 9 0 -3 -14 1 -30 10 -16 9 -30 13 -30 9 0
-4 -6 -1 -14 5 -8 7 -22 13 -32 15 -21 4 -190 71 -216 86 -10 6 -23 10 -30 10
-7 0 -35 11 -62 25 -27 14 -54 25 -59 25 -9 0 -41 13 -144 61 -34 16 -64 29
-66 29 -3 0 -30 11 -61 25 -31 14 -59 25 -64 26 -4 0 -16 6 -27 12 -11 6 -22
12 -25 12 -3 0 -32 13 -65 29 -33 15 -88 41 -122 57 -35 17 -66 30 -70 31 -5
0 -19 8 -33 17 -14 9 -45 26 -70 36 -39 17 -266 131 -395 198 -22 12 -42 22
-45 22 -3 1 -22 11 -42 24 -20 12 -41 22 -45 22 -4 0 -15 6 -23 14 -8 7 -31
20 -50 30 -19 9 -48 24 -65 33 -65 38 -80 46 -85 47 -3 0 -20 10 -38 23 -17
13 -32 21 -32 17 0 -3 -21 9 -47 27 -27 18 -49 31 -51 30 -1 -2 -14 6 -29 18
-14 11 -30 20 -35 20 -5 0 -28 13 -51 29 -23 16 -46 30 -52 31 -5 1 -23 12
-40 24 -16 11 -32 21 -35 21 -3 0 -28 17 -57 37 -28 21 -54 38 -58 38 -5 0
-23 11 -42 26 -18 14 -33 22 -33 19 0 -4 -18 8 -40 25 -22 17 -40 29 -40 25 0
-3 -27 15 -60 40 -33 25 -60 43 -60 40 0 -4 -18 7 -39 24 -21 17 -42 31 -46
31 -3 0 -33 20 -65 45 -32 25 -62 45 -65 45 -4 0 -24 14 -45 30 -21 17 -41 30
-45 30 -5 0 -27 16 -51 35 -23 19 -46 35 -50 35 -4 0 -37 25 -75 55 -37 30
-71 55 -75 55 -3 0 -28 18 -54 40 -26 22 -51 40 -55 40 -4 0 -42 29 -85 65
-43 36 -81 65 -85 65 -4 0 -36 25 -70 55 -35 30 -66 55 -70 55 -4 0 -53 40
-110 90 -57 49 -107 90 -110 90 -4 0 -46 35 -94 79 -47 43 -91 80 -98 82 -6 2
-60 49 -119 104 -59 55 -112 99 -117 97 -11 -3 -1028 1014 -1025 1025 2 5 -42
58 -97 117 -55 59 -102 113 -104 119 -2 7 -39 51 -82 98 -44 48 -79 90 -79 94
0 3 -40 53 -90 110 -49 57 -90 107 -90 111 0 4 -25 35 -55 69 -30 35 -55 66
-55 70 0 4 -29 42 -65 85 -36 43 -65 81 -65 85 0 4 -18 29 -40 55 -22 26 -40
51 -40 55 0 4 -25 38 -55 75 -30 37 -55 71 -55 75 0 4 -16 28 -36 51 -19 24
-32 44 -29 44 3 0 -10 20 -29 44 -20 23 -36 46 -36 50 0 4 -20 34 -45 66 -25
32 -45 62 -45 65 0 4 -14 25 -31 46 -17 21 -28 39 -24 39 3 0 -15 27 -40 60
-25 33 -43 60 -40 60 4 0 -8 18 -25 40 -17 22 -29 40 -25 40 4 0 -4 15 -19 34
-14 19 -26 38 -26 41 0 4 -16 29 -36 56 -20 27 -33 49 -29 49 3 0 -5 15 -19
33 -15 19 -26 37 -26 41 0 3 -16 29 -35 56 -19 28 -33 50 -29 50 3 0 -5 15
-18 32 -13 18 -23 35 -23 38 -1 3 -12 23 -26 45 -15 22 -26 42 -25 45 0 3 -8
19 -19 35 -12 17 -30 48 -40 70 -11 22 -32 59 -47 82 -16 23 -28 46 -28 51 0
5 -9 21 -21 36 -11 14 -17 26 -14 26 4 0 3 6 -3 13 -5 6 -31 53 -57 102 -26
50 -52 96 -57 103 -6 6 -7 12 -4 12 4 0 -1 12 -11 27 -19 28 -92 175 -134 268
-12 28 -31 62 -41 77 -11 16 -17 28 -13 28 3 0 -2 11 -11 25 -9 14 -13 25 -10
25 3 0 -5 18 -19 40 -14 22 -23 40 -21 40 3 0 -9 28 -27 63 -17 34 -31 64 -32
67 0 3 -6 15 -13 28 -7 12 -10 22 -7 22 3 0 -2 11 -11 25 -9 14 -13 25 -10 25
4 0 0 10 -8 23 -8 12 -33 69 -57 127 -23 58 -46 109 -51 115 -4 5 -8 17 -8 27
0 10 -4 18 -10 18 -5 0 -10 7 -10 16 0 9 -6 30 -14 47 -35 80 -108 263 -111
279 -2 9 -13 38 -24 63 -11 25 -18 45 -16 45 2 0 -11 36 -30 80 -19 44 -32 80
-29 80 2 0 -2 14 -11 30 -9 17 -13 30 -9 30 4 0 1 6 -5 14 -7 8 -14 22 -16 32
-2 11 -13 46 -25 79 -12 33 -23 67 -25 75 -3 8 -18 56 -36 105 -17 50 -33 104
-36 120 -3 17 -9 38 -15 48 -5 10 -11 26 -13 35 -2 9 -18 62 -35 117 -18 55
-33 107 -34 115 -3 19 -25 97 -37 130 -5 14 -10 37 -13 52 -2 14 -9 36 -16 47
-6 12 -9 21 -6 21 3 0 0 15 -5 33 -8 25 -48 178 -74 287 -2 8 -8 29 -14 47 -5
17 -7 34 -3 37 3 3 1 6 -4 6 -5 0 -10 8 -10 18 -1 22 -12 85 -18 103 -3 8 -8
25 -10 39 -3 14 -10 45 -16 69 -6 24 -12 55 -15 70 -5 36 -15 82 -21 104 -3
10 -7 31 -9 48 -3 17 -7 39 -10 49 -3 10 -8 35 -11 56 -2 22 -7 47 -10 56 -9
28 -16 62 -16 78 0 8 -6 38 -13 67 -7 28 -11 54 -8 56 2 3 0 22 -6 43 -5 22
-13 62 -16 89 -3 28 -10 73 -15 100 -5 28 -11 68 -14 90 -2 22 -7 51 -10 65
-3 14 -8 54 -11 89 -3 35 -7 67 -9 70 -2 3 -7 39 -11 79 -3 41 -8 81 -10 90
-6 37 -16 120 -20 177 -2 33 -7 82 -11 108 -3 27 -8 72 -9 100 -2 29 -6 84 -9
122 -13 165 -16 206 -21 305 -2 58 -7 137 -11 175 -9 97 -11 1010 -2 1175 4
74 9 187 12 250 3 63 8 142 11 175 4 58 10 131 20 260 3 33 7 76 10 95 3 19 7
64 10 100 3 36 8 83 11 105 3 22 7 56 10 75 2 19 7 60 9 90 3 30 7 62 10 70 2
8 7 47 11 85 3 39 7 72 9 75 3 5 8 39 21 133 3 23 7 49 9 57 2 8 7 38 10 65 3
28 8 57 10 65 3 8 7 29 9 45 11 75 16 98 20 114 3 9 8 38 11 65 3 27 7 52 10
56 2 4 7 26 10 50 3 23 7 45 9 49 2 3 7 22 10 41 3 19 8 46 11 60 3 14 7 39
10 55 2 17 9 50 15 75 6 25 13 56 15 70 3 14 11 52 20 85 29 117 57 230 60
250 2 11 6 34 8 52 3 17 10 39 15 50 6 10 13 35 16 56 3 21 12 53 20 71 8 19
12 37 9 39 -2 3 0 14 5 24 6 10 13 32 16 48 3 17 12 53 20 80 16 54 45 154 50
170 1 6 9 30 16 55 8 25 14 47 15 50 0 3 8 28 18 55 9 28 19 61 21 75 3 14 15
52 27 85 11 33 23 67 25 75 11 41 95 281 113 323 11 26 18 47 15 47 -2 0 2 14
11 30 9 17 13 30 10 30 -3 0 0 10 7 23 7 12 12 24 13 27 0 8 54 149 70 185 11
25 25 64 30 85 3 10 28 66 42 93 8 15 11 27 7 27 -3 0 1 11 10 25 9 14 14 25
10 25 -3 0 4 16 16 35 12 19 18 35 15 35 -4 0 0 11 9 25 9 14 14 25 10 25 -3
0 4 16 16 35 12 19 19 35 16 35 -4 0 1 11 10 25 9 14 13 25 10 25 -4 0 2 12
11 27 10 15 16 27 14 28 -2 0 9 27 24 60 15 33 38 83 50 110 13 28 40 86 61
130 21 44 39 82 39 85 1 3 13 30 28 60 14 30 27 60 28 65 0 6 10 22 21 38 11
15 17 27 14 27 -4 0 4 17 17 38 22 35 49 91 49 102 0 3 9 17 20 33 11 15 17
27 13 27 -3 0 8 20 25 45 17 25 29 45 26 45 -2 0 6 19 19 43 12 23 35 65 50
92 15 28 32 56 37 63 6 6 7 12 4 12 -4 0 1 12 12 28 11 15 20 29 19 32 0 3 12
24 26 47 15 24 27 45 27 49 0 3 9 18 19 32 10 15 19 29 18 32 0 3 12 24 26 47
15 24 27 45 27 48 0 4 12 22 26 41 15 19 23 34 20 34 -4 0 7 20 24 44 16 25
30 48 30 51 0 4 10 21 22 38 13 18 23 34 23 37 0 3 10 19 23 37 12 17 22 34
22 38 0 4 16 29 35 55 19 26 35 51 35 55 0 3 11 21 24 38 14 18 24 34 24 37
-1 3 15 28 34 55 20 28 36 52 35 55 -1 3 13 24 31 47 17 22 32 44 32 48 0 4
14 24 30 45 17 21 30 41 30 45 0 3 20 33 45 65 25 32 45 61 45 65 0 4 16 27
36 51 20 24 33 44 30 44 -4 0 18 31 49 69 30 37 55 72 55 76 0 4 18 29 40 55
22 26 40 51 40 55 0 4 29 43 65 86 36 43 65 81 65 85 0 3 23 33 51 65 28 33
48 59 44 59 -4 0 21 32 55 70 34 39 59 70 55 70 -3 0 41 54 100 120 59 66 103
120 100 120 -4 0 34 44 84 99 50 54 91 102 91 106 0 37 1246 1282 1267 1267 2
-2 48 38 102 87 54 50 102 91 105 91 4 0 58 45 121 100 63 55 117 100 121 100
4 0 35 25 69 55 35 30 66 55 70 55 4 0 31 20 59 45 29 25 56 45 60 45 4 0 19
13 32 30 14 16 29 29 32 27 4 -1 28 15 53 36 25 20 49 37 54 37 4 0 29 18 55
40 26 22 51 40 54 40 4 0 35 23 70 51 36 28 66 50 68 48 2 -2 28 16 56 39 29
24 52 41 52 37 0 -4 29 16 64 44 35 28 67 51 71 51 5 0 24 12 44 27 20 16 38
28 41 28 3 0 19 10 37 23 17 12 34 22 37 22 4 0 31 18 60 40 29 22 56 40 60
40 4 0 22 11 40 25 18 14 36 25 39 25 4 0 29 16 56 35 26 19 52 35 56 35 4 0
21 10 38 23 31 22 54 35 110 64 15 8 27 19 27 25 0 6 3 8 7 5 3 -4 11 -3 17 2
6 5 28 18 49 30 98 55 114 65 139 82 14 11 29 19 33 19 4 0 20 9 36 21 16 11
29 18 29 14 0 -3 20 8 45 25 25 17 45 28 45 25 0 -4 13 3 29 14 16 12 32 21
36 21 4 0 21 10 38 22 18 13 32 21 32 18 0 -3 16 4 35 16 19 11 38 22 42 23 4
1 33 16 65 33 157 83 273 141 317 159 27 11 63 30 80 42 17 12 32 21 33 20 3
-3 61 22 178 77 143 66 175 80 177 78 2 -1 17 5 33 14 46 26 124 59 320 138
99 40 192 79 208 87 15 8 27 11 27 7 0 -3 10 0 23 8 21 14 82 33 82 26 1 -2
13 5 29 15 15 10 35 20 44 22 9 2 55 18 102 35 47 18 93 34 104 36 10 2 29 10
42 19 13 8 24 14 24 11 0 -2 30 7 68 20 37 14 75 27 85 29 9 3 25 7 35 10 9 2
49 16 87 30 39 14 77 28 85 30 8 2 30 8 48 14 17 5 32 8 32 5 0 -2 14 2 30 11
17 9 30 13 30 11 0 -3 20 3 45 14 25 11 49 19 53 18 4 -1 34 6 67 16 33 10 67
19 75 21 8 2 27 8 43 14 15 6 38 13 50 15 12 3 56 15 97 26 41 11 85 23 97 26
12 2 34 9 48 14 14 5 29 9 33 8 4 -1 27 5 52 12 25 7 48 13 52 12 4 -1 25 5
47 13 23 8 41 12 41 10 0 -2 15 1 33 7 17 5 41 11 52 13 40 8 65 14 74 19 5 3
30 8 57 11 26 4 52 9 57 12 6 3 20 7 31 9 26 4 62 12 84 18 9 3 34 8 56 10 21
3 46 8 56 11 10 3 32 7 49 10 17 2 38 6 48 9 21 6 66 15 107 21 15 2 35 7 45
9 9 3 38 8 65 11 28 4 53 8 56 10 3 2 30 6 60 10 30 3 71 10 91 15 20 6 60 12
90 15 30 3 65 7 79 10 25 5 58 10 135 20 22 3 51 7 65 10 14 3 54 7 89 11 36
3 68 7 71 9 4 2 44 7 91 10 46 3 91 8 99 10 16 5 86 12 200 20 36 3 76 7 90
10 14 3 72 7 130 10 58 2 131 7 163 11 83 9 207 13 572 20 176 4 321 7 323 9
2 2 11 1 20 -1 9 -2 145 -6 302 -8z"/>
<path d="M15879 24564 c-27 -6 -51 -9 -54 -6 -3 3 -5 1 -5 -5 0 -9 -30 -22
-60 -27 -3 -1 -19 -11 -36 -23 -17 -12 -33 -20 -36 -17 -8 7 -143 -128 -159
-161 -24 -45 -60 -109 -70 -121 -5 -6 -6 -14 -2 -17 3 -4 1 -7 -5 -7 -6 0 -17
-12 -25 -27 -7 -16 -23 -45 -35 -65 -12 -21 -31 -55 -43 -75 -12 -21 -25 -42
-29 -48 -4 -5 -17 -27 -29 -47 -12 -21 -30 -55 -42 -75 -12 -21 -25 -42 -29
-48 -4 -5 -17 -27 -29 -47 -12 -21 -30 -55 -42 -75 -12 -21 -25 -42 -29 -48
-4 -5 -17 -27 -29 -47 -53 -95 -64 -115 -80 -138 -28 -43 -40 -64 -59 -100
-35 -67 -64 -115 -78 -130 -11 -14 -44 -72 -101 -182 -8 -16 -19 -28 -24 -28
-6 0 -8 -4 -5 -9 3 -5 0 -14 -7 -20 -8 -6 -26 -37 -42 -68 -16 -32 -43 -78
-60 -103 -17 -25 -40 -63 -50 -85 -11 -22 -35 -61 -53 -87 -19 -27 -31 -48
-27 -48 3 0 -5 -15 -18 -32 -13 -18 -32 -51 -43 -73 -10 -22 -22 -41 -26 -43
-5 -2 -8 -8 -8 -14 0 -5 -10 -24 -23 -41 -13 -18 -32 -50 -42 -72 -11 -22 -35
-61 -53 -87 -19 -27 -31 -48 -27 -48 3 0 -5 -15 -19 -33 -15 -19 -26 -37 -26
-41 0 -4 -14 -27 -30 -52 -17 -24 -28 -44 -24 -44 4 0 0 -8 -8 -17 -9 -10 -25
-35 -37 -55 -12 -21 -30 -55 -42 -75 -12 -21 -26 -44 -31 -50 -6 -7 -7 -13 -2
-13 5 0 2 -5 -6 -10 -8 -5 -15 -13 -15 -17 0 -4 -9 -21 -20 -38 -12 -16 -30
-48 -40 -70 -11 -22 -24 -43 -30 -47 -5 -4 -10 -11 -10 -15 0 -4 -10 -22 -23
-40 -12 -17 -22 -34 -22 -38 0 -4 -8 -19 -19 -33 -10 -15 -28 -44 -40 -64 -11
-21 -30 -54 -41 -73 -11 -19 -29 -52 -41 -72 -12 -21 -25 -42 -29 -48 -4 -5
-17 -27 -29 -47 -55 -99 -65 -115 -82 -140 -11 -14 -19 -29 -19 -33 0 -4 -9
-20 -21 -36 -11 -16 -18 -29 -14 -29 3 0 -5 -15 -18 -32 -14 -18 -34 -50 -46
-70 -12 -21 -30 -54 -41 -73 -11 -19 -29 -52 -41 -72 -12 -21 -25 -42 -29 -48
-4 -5 -17 -27 -29 -47 -54 -98 -64 -115 -81 -138 -9 -14 -20 -32 -23 -40 -4
-8 -18 -33 -32 -55 -14 -22 -30 -51 -37 -65 -7 -14 -24 -43 -38 -65 -14 -22
-31 -49 -38 -60 -6 -11 -18 -31 -24 -45 -7 -14 -25 -44 -40 -67 -15 -23 -28
-45 -28 -48 0 -4 -10 -21 -22 -38 -13 -18 -23 -34 -23 -37 0 -3 -7 -16 -16
-30 -43 -69 -79 -132 -79 -137 0 -3 -10 -19 -22 -36 -13 -18 -23 -34 -23 -37
-1 -3 -13 -24 -28 -47 -15 -24 -27 -45 -27 -49 0 -3 -10 -20 -22 -37 -13 -18
-23 -34 -23 -37 -1 -3 -13 -24 -28 -47 -15 -24 -27 -45 -27 -49 0 -3 -10 -20
-22 -37 -13 -18 -23 -34 -23 -37 0 -3 -11 -21 -25 -40 -14 -19 -24 -37 -24
-40 1 -3 -10 -22 -22 -42 -13 -21 -24 -40 -24 -44 0 -3 -10 -20 -22 -37 -13
-18 -23 -34 -23 -37 -1 -3 -14 -26 -30 -52 -37 -57 -68 -111 -69 -118 -1 -3
-11 -18 -22 -35 -12 -16 -23 -34 -24 -40 -2 -5 -14 -27 -26 -47 -13 -21 -24
-40 -24 -44 0 -3 -10 -20 -22 -37 -13 -18 -23 -34 -23 -37 0 -3 -15 -26 -33
-52 -17 -26 -32 -50 -32 -53 0 -4 -9 -20 -21 -36 -11 -16 -18 -29 -14 -29 3 0
-5 -15 -19 -33 -15 -19 -26 -37 -26 -41 0 -4 -13 -27 -30 -51 -16 -24 -30 -48
-30 -53 0 -5 -9 -21 -20 -35 -12 -15 -20 -28 -18 -29 1 -2 -12 -24 -30 -50
-18 -26 -32 -50 -32 -53 0 -4 -9 -20 -21 -36 -11 -16 -18 -29 -14 -29 3 0 -5
-15 -18 -32 -14 -18 -34 -50 -46 -70 -12 -21 -30 -55 -42 -75 -12 -21 -26 -44
-31 -50 -6 -7 -7 -13 -4 -13 4 0 -4 -15 -17 -32 -14 -18 -34 -50 -46 -70 -55
-99 -64 -114 -71 -123 -4 -5 -17 -27 -29 -47 -12 -21 -30 -55 -42 -75 -12 -21
-25 -43 -30 -49 -5 -6 -6 -14 -2 -17 3 -4 1 -7 -5 -7 -6 0 -17 -12 -25 -27
-23 -46 -58 -107 -69 -120 -6 -7 -7 -13 -4 -13 4 0 -4 -15 -17 -32 -14 -18
-34 -50 -46 -70 -55 -99 -64 -114 -71 -123 -4 -5 -17 -27 -29 -47 -12 -21 -30
-55 -42 -75 -12 -21 -28 -46 -37 -55 -8 -10 -12 -18 -8 -18 4 0 -1 -12 -12
-27 -18 -26 -28 -42 -83 -140 -12 -21 -25 -42 -29 -48 -4 -5 -17 -27 -29 -47
-12 -21 -30 -55 -42 -75 -12 -21 -28 -46 -37 -55 -8 -10 -12 -18 -8 -18 4 0
-7 -20 -24 -44 -16 -25 -30 -48 -30 -52 0 -4 -11 -22 -26 -41 -14 -18 -22 -33
-18 -33 3 0 -5 -15 -18 -32 -14 -18 -41 -64 -62 -103 -21 -38 -43 -77 -50 -85
-7 -8 -20 -28 -28 -45 -26 -53 -60 -110 -76 -127 -8 -10 -12 -18 -8 -18 4 0
-8 -21 -27 -47 -18 -27 -44 -69 -56 -95 -12 -26 -30 -57 -40 -70 -20 -25 -55
-84 -79 -133 -8 -16 -22 -38 -30 -47 -8 -10 -12 -18 -8 -18 4 0 -8 -21 -27
-47 -18 -27 -44 -69 -56 -95 -12 -26 -30 -57 -40 -70 -17 -22 -27 -38 -82
-135 -12 -21 -26 -44 -31 -50 -6 -7 -7 -13 -3 -13 4 0 -4 -15 -18 -33 -26 -35
-59 -89 -85 -142 -8 -16 -21 -37 -27 -45 -7 -8 -22 -32 -34 -52 -12 -21 -30
-55 -42 -75 -12 -21 -26 -44 -31 -50 -6 -7 -7 -13 -2 -13 5 0 4 -4 -1 -8 -12
-8 -65 -89 -65 -98 0 -3 -9 -19 -21 -35 -11 -16 -17 -29 -13 -29 3 0 -5 -15
-19 -33 -24 -31 -33 -47 -88 -144 -12 -21 -25 -42 -29 -48 -4 -5 -17 -27 -29
-47 -12 -21 -30 -54 -41 -73 -11 -19 -29 -52 -41 -72 -12 -21 -25 -42 -29 -48
-4 -5 -17 -27 -29 -47 -12 -21 -30 -55 -42 -75 -12 -21 -26 -44 -31 -50 -6 -7
-7 -13 -2 -13 4 0 -1 -7 -12 -15 -10 -8 -15 -15 -10 -15 5 0 2 -8 -6 -17 -9
-10 -25 -35 -37 -55 -12 -21 -30 -55 -42 -75 -12 -21 -25 -42 -29 -48 -4 -5
-17 -27 -29 -47 -54 -98 -64 -115 -81 -138 -9 -14 -20 -32 -23 -40 -4 -8 -20
-37 -37 -65 -17 -27 -33 -58 -37 -67 -3 -10 -9 -18 -13 -18 -8 0 -23 -38 -21
-52 1 -5 -3 -8 -8 -8 -5 0 -16 -12 -24 -27 -20 -41 -58 -107 -67 -118 -4 -5
-17 -27 -29 -47 -55 -99 -65 -115 -82 -140 -11 -14 -19 -29 -19 -33 0 -3 -12
-22 -26 -41 -15 -19 -23 -34 -20 -34 4 0 -2 -13 -13 -29 -12 -16 -21 -32 -21
-36 0 -3 -12 -25 -27 -48 -45 -68 -53 -81 -65 -107 -7 -14 -25 -44 -40 -67
-15 -23 -28 -44 -28 -48 0 -3 -12 -22 -26 -41 -15 -19 -23 -34 -20 -34 4 0 -2
-13 -13 -29 -12 -16 -21 -34 -21 -40 0 -6 -4 -11 -10 -11 -5 0 -10 -5 -10 -12
0 -6 -11 -26 -26 -45 -14 -18 -22 -33 -19 -33 4 0 -3 -12 -14 -26 -12 -15 -21
-31 -21 -36 0 -5 -13 -29 -30 -53 -16 -24 -30 -46 -30 -50 0 -3 -12 -22 -26
-41 -15 -19 -23 -34 -19 -34 3 0 -3 -12 -14 -26 -12 -15 -21 -33 -21 -40 0 -8
-4 -14 -10 -14 -5 0 -10 -5 -10 -11 0 -6 -12 -26 -26 -45 -15 -19 -23 -34 -19
-34 3 0 -3 -12 -14 -26 -12 -15 -21 -31 -21 -36 0 -5 -14 -30 -32 -56 -18 -26
-32 -49 -31 -52 1 -3 -4 -12 -12 -20 -13 -15 -43 -65 -75 -126 -9 -16 -26 -44
-39 -62 -12 -18 -20 -32 -17 -32 2 0 -10 -22 -27 -49 -39 -58 -70 -115 -65
-117 1 -1 -4 -10 -13 -20 -10 -11 -26 -35 -36 -54 -11 -19 -33 -60 -50 -90
-50 -90 -74 -172 -77 -261 -5 -116 17 -192 99 -338 16 -28 126 -141 138 -141
5 0 25 -12 44 -27 20 -16 38 -27 40 -25 2 1 17 -5 33 -13 17 -9 30 -13 30 -11
0 3 16 -2 36 -10 46 -19 208 -21 279 -3 28 7 79 24 115 39 36 15 70 28 75 30
14 4 50 18 83 32 15 6 29 12 32 12 13 3 128 49 153 62 15 9 27 13 27 10 0 -5
95 32 157 60 17 8 37 14 45 14 7 0 22 6 33 14 11 7 34 17 50 21 40 11 36 10
70 24 62 27 80 34 90 36 6 2 35 13 65 25 62 25 66 26 170 66 41 16 77 29 80
30 3 0 16 5 30 11 35 15 144 58 150 58 3 0 14 6 25 12 11 6 35 14 53 18 17 3
32 10 32 14 0 4 6 8 13 8 11 1 125 42 172 62 27 12 139 55 145 57 3 0 17 6 33
12 15 7 39 17 55 24 15 6 29 12 32 13 70 20 90 27 95 35 3 6 13 10 22 10 8 0
29 6 46 14 70 30 140 58 157 61 10 2 26 8 36 13 11 6 46 20 79 32 33 12 74 27
90 34 17 7 80 32 140 56 61 23 119 46 130 50 11 4 36 13 55 20 19 6 47 18 63
26 15 9 27 12 27 9 0 -3 12 1 28 9 39 21 160 66 177 66 8 0 15 5 15 10 0 6 7
10 16 10 8 0 54 16 102 36 48 20 95 38 106 40 10 2 24 8 31 14 7 6 21 13 31
15 25 5 163 56 244 90 36 14 70 28 75 29 6 1 19 7 30 13 11 6 24 11 28 11 7 0
70 23 142 52 11 4 70 27 130 50 61 24 124 48 140 55 17 7 57 22 90 34 33 13
71 28 85 34 14 5 30 11 35 12 6 2 35 13 65 25 30 12 64 26 75 30 11 4 67 26
125 49 58 24 113 44 124 46 10 3 24 9 32 16 8 6 14 9 14 5 0 -3 25 5 55 19 30
13 55 22 55 19 0 -3 12 1 28 10 15 8 54 24 87 37 33 12 79 30 102 41 23 10 48
18 55 18 8 0 22 6 33 14 11 7 34 17 50 21 17 5 32 9 35 10 5 1 14 5 85 36 17
7 35 13 40 14 6 2 35 13 65 25 62 25 66 26 170 66 41 16 77 29 80 29 3 1 15 6
28 14 13 7 31 14 40 16 22 4 102 34 126 47 10 5 26 11 35 13 9 2 63 22 121 45
167 67 262 104 270 106 3 0 17 6 33 12 67 29 83 35 92 38 13 2 144 51 170 63
53 23 129 53 145 56 10 2 26 8 36 13 11 6 46 20 79 32 33 12 74 27 90 34 68
30 221 88 238 92 11 2 25 8 32 14 7 6 21 13 31 15 11 2 36 9 57 14 21 5 82 9
135 9 95 -1 181 -21 287 -67 17 -8 39 -17 50 -21 154 -60 296 -115 320 -125
17 -7 44 -18 60 -25 17 -7 44 -18 60 -25 27 -12 71 -27 85 -30 3 0 15 -6 28
-13 12 -7 22 -10 22 -7 0 4 16 -3 35 -15 19 -12 35 -18 35 -15 0 4 11 0 25 -9
14 -9 25 -14 25 -11 0 3 15 -2 33 -12 17 -9 37 -18 42 -19 14 -3 113 -42 152
-59 17 -8 36 -15 41 -15 6 0 23 -6 39 -14 15 -8 39 -19 53 -24 14 -5 50 -20
80 -32 30 -12 59 -23 65 -24 5 -1 20 -8 33 -14 12 -7 22 -10 22 -7 0 3 12 0
28 -8 28 -15 83 -40 92 -41 4 -1 122 -47 205 -81 177 -72 292 -117 300 -119 6
-1 20 -8 33 -14 12 -7 22 -10 22 -7 0 3 12 0 28 -8 27 -15 87 -40 87 -37 0 0
27 -11 60 -25 33 -15 62 -27 65 -27 6 -1 39 -13 78 -30 15 -6 32 -12 37 -14 6
-1 76 -29 158 -63 81 -33 153 -61 160 -61 7 0 17 -4 22 -9 11 -10 123 -52 143
-54 6 0 12 -4 12 -8 0 -5 25 -15 60 -24 3 0 15 -6 28 -13 12 -7 22 -10 22 -7
0 3 15 -2 33 -12 17 -9 37 -18 42 -19 9 -1 88 -33 205 -81 97 -40 264 -105
275 -108 14 -3 65 -24 98 -42 15 -8 27 -12 27 -9 0 3 25 -6 55 -19 30 -14 56
-24 58 -24 2 1 32 -11 92 -36 17 -7 41 -17 55 -23 14 -5 39 -15 55 -22 17 -6
30 -11 30 -10 0 0 48 -19 107 -44 58 -24 109 -42 112 -39 3 4 6 1 6 -5 0 -6
14 -14 32 -17 18 -4 39 -11 48 -16 8 -4 58 -24 110 -44 52 -21 107 -44 123
-52 15 -8 27 -11 27 -7 0 3 11 -1 25 -10 14 -9 25 -14 25 -11 0 3 15 -2 33
-12 17 -9 34 -18 37 -18 16 -3 59 -18 85 -30 71 -32 104 -45 114 -45 6 0 19
-4 29 -10 9 -5 33 -15 52 -23 19 -8 60 -25 90 -37 30 -12 59 -23 65 -24 5 -1
20 -8 33 -14 12 -7 22 -10 22 -7 0 4 16 -3 35 -15 19 -12 35 -19 35 -15 0 3
10 0 23 -7 12 -7 24 -13 27 -13 5 0 104 -38 160 -62 41 -17 44 -18 170 -68 52
-21 115 -46 140 -55 25 -9 55 -21 68 -28 12 -7 22 -10 22 -7 0 3 12 0 28 -8
26 -14 69 -32 84 -36 4 -1 32 -13 63 -26 30 -14 55 -22 55 -19 0 3 12 -1 28
-9 32 -18 83 -39 97 -42 6 -2 65 -26 132 -54 68 -28 127 -51 133 -51 6 0 18
-4 28 -9 46 -22 238 -102 257 -106 12 -2 63 -24 89 -37 10 -5 26 -11 35 -13
15 -3 125 -45 206 -80 41 -17 228 -90 235 -91 3 0 25 -6 50 -13 50 -15 186
-20 240 -9 60 12 133 37 159 55 14 10 30 16 34 15 11 -3 177 164 177 178 0 7
8 24 18 38 63 95 84 273 47 402 -8 30 -17 60 -18 65 -4 12 -13 30 -86 159 -11
18 -25 44 -33 57 -7 13 -15 26 -18 29 -3 3 -14 23 -25 45 -10 22 -28 53 -39
69 -11 17 -27 44 -36 60 -28 52 -62 110 -72 124 -6 6 -7 12 -3 12 3 0 -3 12
-15 28 -12 15 -28 41 -36 57 -8 17 -28 53 -44 80 -17 28 -33 57 -37 65 -3 8
-18 33 -33 55 -15 22 -37 61 -49 87 -12 26 -30 57 -40 70 -10 13 -24 37 -33
53 -8 17 -25 48 -38 70 -12 22 -34 60 -48 85 -13 25 -31 53 -40 63 -8 9 -11
17 -7 17 4 0 1 8 -8 18 -8 9 -26 37 -39 62 -14 25 -35 63 -48 85 -13 22 -37
65 -53 95 -17 30 -35 58 -41 62 -6 4 -7 8 -2 8 5 0 2 8 -6 18 -8 9 -22 31 -30
47 -22 45 -58 107 -79 137 -11 14 -19 30 -19 36 0 5 -10 22 -22 38 -13 16 -21
29 -19 29 3 0 -8 19 -22 42 -15 24 -27 46 -27 49 0 4 -11 22 -26 41 -14 18
-22 33 -19 33 4 0 -3 13 -14 29 -12 16 -21 32 -21 35 0 4 -11 23 -24 44 -12
20 -24 42 -25 47 -1 6 -8 17 -16 25 -7 8 -24 35 -37 60 -14 25 -34 62 -46 83
-12 20 -31 54 -43 75 -12 20 -26 43 -31 50 -6 6 -7 12 -2 12 5 0 2 6 -7 13 -8
7 -25 33 -38 59 -12 26 -31 58 -42 72 -11 14 -18 26 -14 26 3 0 -7 19 -22 43
-16 23 -34 53 -41 67 -6 14 -18 34 -24 45 -32 49 -61 100 -60 105 0 3 -11 20
-24 38 -14 17 -22 32 -19 32 4 0 -3 13 -14 29 -12 16 -21 32 -21 36 0 3 -13
25 -28 48 -16 23 -39 63 -51 89 -12 26 -30 57 -40 70 -10 13 -24 37 -33 53 -8
17 -24 47 -36 68 -12 20 -32 54 -43 75 -12 20 -30 49 -41 65 -11 15 -16 27
-13 27 3 0 -3 13 -14 29 -12 16 -21 32 -21 36 0 3 -14 27 -32 53 -18 26 -32
49 -31 52 0 3 -7 16 -16 30 -9 14 -30 50 -46 80 -15 30 -39 70 -53 88 -13 17
-21 32 -18 32 4 0 -2 13 -13 29 -12 16 -21 32 -21 36 0 3 -13 26 -30 50 -16
24 -30 47 -30 50 0 4 -9 20 -21 36 -11 16 -18 29 -15 29 4 0 -7 19 -24 42 -16
22 -30 46 -30 51 0 6 -11 25 -26 44 -14 18 -22 33 -19 33 4 0 -3 13 -14 29
-12 16 -21 32 -21 35 0 4 -11 23 -24 44 -12 20 -24 41 -24 45 -1 4 -10 19 -22
34 -11 14 -20 30 -20 35 0 5 -13 28 -29 51 -16 23 -30 47 -31 52 -1 6 -11 22
-21 37 -10 14 -19 30 -19 36 0 5 -9 21 -21 36 -11 14 -36 56 -56 94 -19 37
-42 75 -50 85 -9 9 -13 17 -9 17 4 0 -7 20 -24 44 -16 25 -30 48 -30 51 0 4
-9 20 -21 36 -11 16 -18 29 -14 29 3 0 -5 15 -18 32 -13 18 -31 47 -39 63 -8
17 -25 48 -38 70 -13 22 -30 52 -37 68 -8 15 -19 27 -25 27 -6 0 -8 3 -5 6 4
4 -2 19 -12 33 -10 14 -27 46 -39 71 -12 25 -33 61 -47 80 -14 19 -39 62 -55
95 -31 62 -51 96 -61 105 -3 3 -15 26 -28 52 -12 26 -31 58 -42 72 -11 14 -18
26 -14 26 3 0 -9 21 -27 48 -18 26 -32 49 -31 52 0 3 -8 17 -18 32 -10 14 -19
29 -19 32 0 4 -12 25 -27 49 -14 23 -26 44 -25 47 0 3 -5 12 -12 20 -7 8 -20
30 -30 48 -40 79 -48 92 -58 92 -6 0 -8 3 -5 7 4 3 3 11 -2 17 -5 6 -25 41
-44 78 -20 38 -45 80 -56 94 -12 15 -21 31 -21 37 0 6 -11 25 -26 44 -14 18
-22 33 -19 33 4 0 -3 13 -14 29 -12 16 -21 32 -21 36 0 3 -14 26 -30 51 -17
24 -28 44 -24 44 4 0 0 8 -8 18 -8 9 -26 37 -40 62 -13 25 -35 63 -48 85 -12
22 -34 60 -48 85 -13 25 -31 53 -40 63 -8 9 -12 17 -8 17 4 0 -2 12 -13 26
-12 15 -21 31 -21 36 0 6 -10 24 -22 41 -21 29 -40 63 -76 132 -8 17 -22 38
-30 48 -8 9 -12 17 -8 17 3 0 -7 19 -24 42 -16 22 -30 46 -30 51 0 6 -11 25
-26 44 -14 18 -22 33 -19 33 4 0 -2 12 -13 28 -23 32 -53 83 -99 170 -18 35
-45 79 -59 98 -15 18 -23 34 -19 34 4 0 3 6 -3 13 -5 6 -19 28 -30 48 -40 72
-47 84 -52 89 -3 3 -14 23 -25 45 -10 22 -28 53 -39 69 -11 17 -27 44 -36 60
-9 17 -26 48 -38 69 -12 20 -32 54 -43 75 -12 20 -30 49 -41 65 -11 15 -17 27
-13 27 3 0 -6 16 -21 35 -14 19 -23 35 -20 35 4 0 -1 12 -12 28 -23 32 -53 83
-99 171 -18 35 -42 75 -53 89 -11 13 -20 29 -20 35 0 6 -11 25 -26 44 -14 18
-22 33 -19 33 3 0 -8 20 -25 44 -16 25 -30 49 -30 54 0 5 -9 21 -21 36 -11 14
-18 26 -14 26 3 0 -4 14 -16 32 -13 18 -30 46 -39 62 -9 17 -26 48 -38 69 -21
35 -43 74 -74 128 -7 13 -17 27 -23 31 -5 4 -6 8 -2 8 5 0 -1 12 -12 26 -12
15 -21 31 -21 37 0 6 -11 25 -26 44 -14 18 -22 33 -19 33 4 0 -2 12 -13 28
-11 15 -29 43 -40 63 -42 76 -47 84 -52 89 -3 3 -14 23 -24 45 -11 22 -30 55
-43 73 -13 17 -21 32 -18 32 3 0 -7 19 -22 43 -16 23 -34 53 -41 67 -7 14 -23
43 -37 65 -14 22 -32 54 -40 70 -9 17 -29 53 -45 80 -17 28 -33 57 -37 65 -3
8 -18 33 -33 55 -14 22 -35 58 -45 80 -11 22 -29 53 -40 69 -10 17 -26 44 -35
60 -9 17 -26 47 -37 67 -12 20 -27 47 -35 60 -7 13 -15 26 -18 29 -3 3 -14 23
-24 45 -11 22 -29 54 -40 70 -12 17 -30 48 -41 70 -10 22 -27 51 -36 65 -30
45 -70 115 -76 133 -3 9 -10 17 -15 17 -5 0 -7 4 -3 9 3 5 1 12 -5 16 -6 3
-19 23 -29 43 -44 87 -53 102 -63 102 -6 0 -8 3 -5 6 4 4 -2 19 -13 34 -11 16
-20 31 -20 35 0 4 -9 20 -21 36 -11 16 -18 29 -14 29 3 0 -8 20 -25 44 -16 25
-30 48 -30 52 0 4 -11 22 -26 41 -14 18 -22 33 -19 33 4 0 -3 13 -14 29 -12
16 -21 32 -21 35 0 4 -12 25 -27 49 -15 23 -27 44 -28 47 0 3 -9 19 -20 35
-11 17 -29 48 -40 70 -10 22 -32 59 -47 82 -15 23 -28 45 -28 48 0 4 -9 20
-21 36 -11 16 -17 29 -12 29 4 0 -1 7 -11 15 -11 8 -16 15 -12 15 4 0 -2 12
-13 26 -12 15 -21 31 -21 37 0 6 -11 25 -26 44 -14 18 -22 33 -19 33 3 0 -8
20 -25 44 -16 25 -30 49 -30 54 0 5 -9 21 -21 36 -11 14 -18 26 -14 26 4 0 -3
12 -14 26 -12 15 -21 31 -21 36 0 5 -14 30 -32 56 -18 26 -44 70 -59 98 -14
28 -35 64 -46 80 -11 16 -30 50 -42 77 -13 26 -27 47 -32 47 -6 0 -8 4 -4 9 3
5 1 12 -5 16 -6 3 -18 23 -28 43 -24 47 -61 114 -73 128 -5 6 -24 40 -42 75
-19 35 -44 82 -57 104 -13 22 -30 52 -37 68 -8 15 -19 27 -25 27 -6 0 -8 3 -5
6 4 4 -2 19 -13 34 -11 16 -20 31 -20 36 0 4 -11 22 -25 40 -14 18 -25 37 -25
41 0 5 -22 31 -50 58 -27 27 -50 45 -50 41 0 -5 -8 -2 -17 7 -33 28 -128 74
-180 87 -69 16 -202 18 -264 4z"/>
</g>
</svg>
